/* XPM */
static const char * a_a_xpm[] = {
"23 39 59 1",
" 	c None",
".	c #000000",
"+	c #3B1908",
"@	c #5D2A08",
"#	c #904C08",
"$	c #4C1908",
"%	c #B27F08",
"&	c #6E3B08",
"*	c #D4B208",
"=	c #905D08",
"-	c #A16E08",
";	c #E5D408",
">	c #E5E508",
",	c #C3B208",
"'	c #5D3B08",
")	c #2A1908",
"!	c #7F3B08",
"~	c #C37F08",
"{	c #904C19",
"]	c #C39019",
"^	c #6E2A08",
"/	c #B26E19",
"(	c #D4B219",
"_	c #2A0808",
":	c #6E3B19",
"<	c #D4A119",
"[	c #E5C308",
"}	c #F6E508",
"|	c #D4C308",
"1	c #D49019",
"2	c #C37F19",
"3	c #A15D19",
"4	c #7F3B19",
"5	c #B26E08",
"6	c #C3A108",
"7	c #A14C19",
"8	c #C39008",
"9	c #7F4C19",
"0	c #903B19",
"a	c #905D19",
"b	c #D4A108",
"c	c #B25D19",
"d	c #D4C319",
"e	c #C3A119",
"f	c #F6F608",
"g	c #5D2A19",
"h	c #E5C319",
"i	c #A16E19",
"j	c #B29019",
"k	c #4C2A08",
"l	c #A17F19",
"m	c #B29008",
"n	c #6E2A19",
"o	c #B2A108",
"p	c #907F08",
"q	c #7F4C08",
"r	c #D4D408",
"s	c #B27F19",
"t	c #6E4C08",
"...........+...........",
"..........@#+..........",
".........$#%@..........",
".........&%*=+.........",
"........+-;>,'.........",
".......)!~;>;-$........",
".......+{*>>>]^........",
".......@/>>>>({_.......",
".......:<>>[};/+.......",
"......${|>|1>>2@.......",
"......^3*>]/;[24.......",
"......!56*/718~3+......",
"......988~30/~*/+......",
".....)a[b/{:c8;]@......",
".....$/>[c&$7]>d4+.....",
".....$ef;c@+4]>;a+.....",
"....)gh}h{$_g2>>i$.....",
"....+9;><{++@/;>j@)....",
"...)@i>;2{@k:3|>*9+....",
"...+:*>*/{{777]>>l+....",
"...$i;>*2i/3/2*>>*g+...",
"...g]>>;[*8%*[;>>>4+...",
"..+4(}>;;|8%,|;;>>i$...",
"..+3;>;|,*8%mm6(;}<^+..",
".+@/*>e/3i{&^4{/|>|4k..",
".$0<8;3:4@@+)$@4e>;/4_.",
"_n7[|o4$+....._n-|;]4+.",
".n7*|pn+.......@qors4+.",
".@{mmt$_.......+@-6a@..",
".k:9{k_.........${a&+..",
"....)............++)...",
".......................",
".......................",
".......................",
".......................",
".......................",
".......................",
".......................",
"......................."};
