/* XPM */
static const char * a_b_xpm[] = {
"23 39 67 1",
" 	c None",
".	c #000000",
"+	c #3B1908",
"@	c #5D1908",
"#	c #5D2A08",
"$	c #6E2A19",
"%	c #4C1908",
"&	c #2A1908",
"*	c #6E3B08",
"=	c #6E2A08",
"-	c #6E3B19",
";	c #904C19",
">	c #A15D19",
",	c #B25D08",
"'	c #D4A108",
")	c #C3B208",
"!	c #B2A108",
"~	c #B27F08",
"{	c #D4A119",
"]	c #D4B208",
"^	c #E5C308",
"/	c #C37F08",
"(	c #903B19",
"_	c #903B08",
":	c #E59008",
"<	c #F6E508",
"[	c #F6F608",
"}	c #E5D408",
"|	c #D47F08",
"1	c #E5A108",
"2	c #D49008",
"3	c #2A0808",
"4	c #904C08",
"5	c #A16E08",
"6	c #B29008",
"7	c #B27F19",
"8	c #A16E19",
"9	c #F6D408",
"0	c #B25D19",
"a	c #7F3B08",
"b	c #B24C08",
"c	c #E5B208",
"d	c #A14C08",
"e	c #C37F19",
"f	c #7F3B19",
"g	c #A14C19",
"h	c #C35D08",
"i	c #C35D19",
"j	c #7F4C08",
"k	c #C36E19",
"l	c #4C2A08",
"m	c #7F2A08",
"n	c #5D2A19",
"o	c #A15D08",
"p	c #C39019",
"q	c #B26E19",
"r	c #7F4C19",
"s	c #A13B19",
"t	c #905D19",
"u	c #B26E08",
"v	c #C36E08",
"w	c #C39008",
"x	c #D4C308",
"y	c #E5E508",
"z	c #7F5D08",
"A	c #6E4C08",
"B	c #5D3B08",
"....+++@@@#$##%&.......",
"...%#*==@=-;>;#&&......",
"..+=,'')!~{]{^/(%&....+",
"..%_:<[[}|}<<<<1(%&...%",
"..._2<<<}^<<<<<<'-%...3",
"...4}<<2|5678/<[90#&...",
"...a2<}|b#3+#(1<<'-%...",
"...ac<1|d+3.&$e<[9f%&..",
"...#'91|d+..&$0'[}g%&..",
"...#'^^h_%...$i:}^f%&..",
"...jc1chf#3&#(k21:f#&..",
"..l|^9}bmmn$(0c}}/f&...",
"..@b|<cgjopqe9<[^0#....",
"..%hc[<]}}[[<<<}ef&....",
"..%dc<<<[[[[[<92kf&....",
"..#hc[<[<[[[<<<9k(&....",
"..#hc[92~/c|2^<[^>%....",
"..#hc[9_mmr(s:<<[{$&...",
"..%b|9cd@#+%#fk}[^;&&..",
"..+dc[cd+3.&%#$e[9e%&..",
"...4c[|,%...&%%t9^1f&..",
"...ac[cd%....&%t<<^f&..",
"...ac[c,%....&$><<^#&..",
"..._c99u+...&#sp<<p%&..",
"...4cc9va=&%$fkc<<r&...",
"...bcc9|h0a$fk1}[cl&...",
"..+b2<<'w2u']c^[9>%....",
"..+,^<[<^}wx<<[9e#&....",
"..+(|<9xx'/^y<}p;&.....",
"...=mda4zuv~w>AB&......",
"...+@@@=m#+............",
".......................",
".......................",
".......................",
".......................",
".......................",
".......................",
".......................",
"......................."};
