/* XPM */
static const char * a_d_xpm[] = {
"23 39 47 1",
" 	c None",
".	c #000000",
"+	c #3B1908",
"@	c #4C2A08",
"#	c #7F3B08",
"$	c #A14C08",
"%	c #6E2A08",
"&	c #5D1908",
"*	c #5D2A08",
"=	c #2A1908",
"-	c #7F4C08",
";	c #904C08",
">	c #B25D08",
",	c #903B08",
"'	c #A13B08",
")	c #B24C08",
"!	c #C37F08",
"~	c #E5C308",
"{	c #D4C308",
"]	c #D4D408",
"^	c #D4A108",
"/	c #C35D08",
"(	c #E5B208",
"_	c #E5D408",
":	c #E5E508",
"<	c #C39008",
"[	c #F6E508",
"}	c #D49008",
"|	c #4C1908",
"1	c #D4B208",
"2	c #F6D408",
"3	c #7F2A08",
"4	c #A16E08",
"5	c #C36E08",
"6	c #D47F08",
"7	c #E5A108",
"8	c #B26E08",
"9	c #D46E08",
"0	c #2A0808",
"a	c #B27F08",
"b	c #C3A108",
"c	c #6E3B08",
"d	c #B29008",
"e	c #A15D08",
"f	c #905D08",
"g	c #B2A108",
"h	c #904C19",
".....++@#$%&*##+.......",
"...=%*-;>;-,')'*.......",
"...*>!~~{]~!^^/,*......",
"...%/(_:::_<~[[},**....",
"...|>([:{11<~2[[},3|...",
"...|>(:_4)$>56[[2)#*...",
"....$~[~>>),)/7[2}3%...",
"...=;~[~8)%|'/6222)3+..",
"...#)_2(/>*.|$/}[[9%+..",
"...#>1:~!)|..+'62~/%*..",
"...%>!11>,0...%/~15''+.",
"...#>84a>,0...*/^<5))+.",
"...#/<b8>%....|)5}(//|.",
"...c5~~^$@.....#>([6/*.",
"...%>(~()%0....%>_26/*.",
"...#/(:~>#0....%5~2}/*.",
"..+$/([~)%0....%a_[6/|.",
"..+$/7[1,|....03!_~/>|.",
"...,>^:d*|....|,^[(/)..",
"...#>~:b#*0..0#/227),..",
"...*/1[~;c=..|$}22})|..",
"...*/([_;%0..%$^:(/3...",
"...*/^[~$%..+,a::1'%...",
"...@/^[~e#+0|#1::8,|...",
"...+$~[~$,*|*e]:1$*....",
"...c8_[_;#3#f<_2/#+....",
"...*>([_bgdda81/,|.....",
"...+>~[[[:_:{!),%......",
"...+h6~_~~~18,3%.......",
"...+#,)$>>8-%%*+.......",
"....+*#%***+...........",
".......................",
".......................",
".......................",
".......................",
".......................",
".......................",
".......................",
"......................."};
