/* XPM */
static const char * a_e_xpm[] = {
"23 39 62 1",
" 	c None",
".	c #000000",
"+	c #3B1908",
"@	c #4C1908",
"#	c #5D2A08",
"$	c #6E2A08",
"%	c #5D2A19",
"&	c #4C2A08",
"*	c #2A0808",
"=	c #5D1908",
"-	c #7F3B08",
";	c #904C19",
">	c #7F4C19",
",	c #7F3B19",
"'	c #6E3B19",
")	c #904C08",
"!	c #903B19",
"~	c #7F2A08",
"{	c #903B08",
"]	c #B26E08",
"^	c #A16E08",
"/	c #B27F08",
"(	c #C3A108",
"_	c #E5C308",
":	c #B29008",
"<	c #6E3B08",
"[	c #2A1908",
"}	c #D49008",
"|	c #E5E508",
"1	c #E5D408",
"2	c #F6E508",
"3	c #A15D19",
"4	c #E5A108",
"5	c #D4B208",
"6	c #D4C308",
"7	c #905D19",
"8	c #C36E08",
"9	c #B27F19",
"0	c #C3B208",
"a	c #A16E19",
"b	c #D47F08",
"c	c #A14C19",
"d	c #E5B208",
"e	c #A14C08",
"f	c #D4A108",
"g	c #F6D408",
"h	c #C39008",
"i	c #C35D08",
"j	c #7F4C08",
"k	c #C37F08",
"l	c #B25D08",
"m	c #B24C08",
"n	c #C3A119",
"o	c #A15D08",
"p	c #F6F608",
"q	c #905D08",
"r	c #C36E19",
"s	c #A17F08",
"t	c #5D3B08",
"u	c #A13B08",
"v	c #906E08",
"w	c #A17F19",
"....+@#$###%@##&@+*....",
"...=$-;>-,'>),;--!~+...",
"..+${]^^/(_(:(:^/^)<[..",
"..@{}|11122112112_3;&..",
"...{4222122156__5:7;&..",
"...)122}890a;;;){{-&...",
"...-}21bc;;;;;;;{{#....",
"...-d24be#&&@#,<$#.....",
"...#fg4be+...[+........",
"...#hf5i{@.............",
"...j]h/i,#.+&+.........",
"..&k5|6l--,,,<&+.......",
"..=mf|_;;;c;;;){&[.....",
"..@id22fn(5h^aho<<&....",
"..@ed222p2|1h96(<#&....",
"..#idp2p2211(a(]<#+....",
"..#idp1h^]]]oq)-$#.....",
"..#idp1{;;;{;;{$&+.....",
"..@mbg4c;-###&@[.......",
"..+edpde#+..[..........",
"...)dpbl$&.............",
"...-dpde$&.............",
"...-dpdl#..............",
"...{dggl;@..[..........",
"...)ddgl;-<',&####.....",
"...mdd1r;;,,;,;,,;&....",
"..+m}22d(_:s/s6:s7-#...",
"..+l522gg2161|221(7t...",
"..+{l11_11_61_2|_s7&...",
"...~~u-qva33sqwva;<....",
"...@===#~,,'&&+[##[....",
".......................",
".......................",
".......................",
".......................",
".......................",
".......................",
".......................",
"......................."};

