/* XPM */
static const char * a_f_xpm[] = {
"23 39 59 1",
" 	c None",
".	c #000000",
"+	c #3B1908",
"@	c #4C1908",
"#	c #5D2A08",
"$	c #6E2A08",
"%	c #5D2A19",
"&	c #4C2A08",
"*	c #2A0808",
"=	c #7F3B08",
"-	c #904C19",
";	c #7F4C19",
">	c #7F3B19",
",	c #6E3B19",
"'	c #904C08",
")	c #903B19",
"!	c #A16E08",
"~	c #B27F08",
"{	c #B29008",
"]	c #C39008",
"^	c #D4B208",
"/	c #C3A108",
"(	c #A16E19",
"_	c #D4B219",
":	c #E5E508",
"<	c #E5D408",
"[	c #F6E508",
"}	c #3B2A08",
"|	c #903B08",
"1	c #D49008",
"2	c #D4C308",
"3	c #E5C308",
"4	c #A15D19",
"5	c #905D19",
"6	c #2A1908",
"7	c #E5B208",
"8	c #E5A108",
"9	c #D47F08",
"0	c #A14C08",
"a	c #6E3B08",
"b	c #D4A108",
"c	c #C35D08",
"d	c #7F4C08",
"e	c #C37F08",
"f	c #B25D08",
"g	c #5D1908",
"h	c #B24C08",
"i	c #A14C19",
"j	c #C3A119",
"k	c #B26E08",
"l	c #B27F19",
"m	c #A15D08",
"n	c #F6F608",
"o	c #905D08",
"p	c #C3B208",
"q	c #B26E19",
"r	c #F6D408",
"s	c #5D3B08",
"t	c #7F2A08",
".....+@#$###%@##&@+*...",
"...*#$=-;=>,;'>-==)$*..",
"...&)-!~~{]^/{/{!~{'+..",
"...#-(_::<<[<<[<<[:/}..",
"....|1<[[<<<<2233^/(+..",
"....'<[[[14!(5--'||=6..",
"....=1[<14-------||#...",
"....=7[890#&&@#>a$#....",
"....#b[890+...6+.......",
"....#b:7c|@............",
"....d~/{c>#.+&+........",
"...&e^:2f==>>>a&+......",
"...ghb:3---i---'|&6....",
"...@c7[[bj/^]kl/maa&...",
"...@07[[[n[:</^<^a#&...",
"...#c7n[n[[<</{^~a#+...",
"...#c7n<]!kkkmo0=$#....",
"...#cb[:m---|--|$&+....",
"...@m(234-=###&@6......",
"...+0(^2k#+..6.........",
"....']]pk$&............",
"....=8]q0$&............",
"....=7:bf#.............",
"....|7r<0#.............",
"....'732=a6............",
"....h3[2a$6............",
"...+h3[2s&.............",
"...+f<[<a#.............",
"...+|e[{#6.............",
"....t|'=>+.............",
"....@g@@+..............",
".......................",
".......................",
".......................",
".......................",
".......................",
".......................",
".......................",
"......................."};

