/* XPM */
static const char * a_g_xpm[] = {
"23 39 51 1",
" 	c None",
".	c #000000",
"+	c #3B1908",
"@	c #2A0808",
"#	c #5D2A08",
"$	c #6E2A08",
"%	c #5D3B08",
"&	c #6E3B08",
"*	c #6E4C08",
"=	c #5D1908",
"-	c #4C1908",
";	c #7F2A08",
">	c #903B08",
",	c #B25D08",
"'	c #D4B208",
")	c #A14C08",
"!	c #B24C08",
"~	c #D49008",
"{	c #F6D408",
"]	c #F6E508",
"^	c #E5E508",
"/	c #E5C308",
"(	c #E5B208",
"_	c #C35D08",
":	c #E5D408",
"<	c #4C2A08",
"[	c #7F3B08",
"}	c #A15D08",
"|	c #C36E08",
"1	c #A13B08",
"2	c #C37F08",
"3	c #D47F08",
"4	c #C39008",
"5	c #B26E08",
"6	c #D4A108",
"7	c #904C08",
"8	c #E5A108",
"9	c #B27F08",
"0	c #2A1908",
"a	c #C3A108",
"b	c #C3B208",
"c	c #D4C308",
"d	c #A17F08",
"e	c #A16E08",
"f	c #906E08",
"g	c #7F6E08",
"h	c #7F5D08",
"i	c #905D08",
"j	c #7F4C08",
"k	c #902A08",
"l	c #D46E08",
"...........++@@........",
"......+#$$#%&*$=-......",
"......$;;>,''')>>=.....",
".....$>!~{]]]^/(~_#....",
"....->_{]]((::{]{_><...",
"...+[_{]{~!>)}|{]~)$...",
"...#12:^~!>[[[13{:4[...",
"..->),2'_)#+->1)/^/}@..",
"..$>|25,)#...$1[6^/}+..",
"..;_6:2!$....@##745$...",
".-!~{{~)-.......--#....",
".>!8{{_[...............",
".!_(]6>-...............",
"-,_/:2;................",
"-_3]:9$....+[###$+#<$0.",
"#_~{/|$...+),,_!,}|))#.",
"#_3{:,[...[_~''abccd7<.",
"#_3](,1+.0>5:^^:]]]:}#.",
"-__(~|!-..#[efghdb:ci7+",
"+!!|46_#..$))&[))h^bj7+",
"+!1|'/_$...--+-[!e]d77+",
".>;_/{31+......0[~]')$.",
".;kl]]~_)-.....$!':2>+.",
".-;!{{{3_1-..-$>|::5[..",
".@;;~{]8_!>=#;>_6]',$..",
"..$[!{]]3_>$>>,3{]4)-..",
"..-;>~]]{3>1}}~{/6,[...",
"...##>~]]{3(:/{/,![+...",
".....#>_883{/:(2[$+....",
"......->!;#&jii%.......",
".......+----<<-........",
".......................",
".......................",
".......................",
".......................",
".......................",
".......................",
".......................",
"......................."};

