/* XPM */
static const char * a_h_xpm[] = {
"23 39 62 1",
" 	c None",
".	c #000000",
"+	c #3B1908",
"@	c #4C2A08",
"#	c #5D2A08",
"$	c #6E3B08",
"%	c #A16E08",
"&	c #B29008",
"*	c #7F3B08",
"=	c #5D3B08",
"-	c #904C19",
";	c #905D08",
">	c #A15D19",
",	c #904C08",
"'	c #D4C308",
")	c #E5E508",
"!	c #2A1908",
"~	c #C39008",
"{	c #A15D08",
"]	c #4C1908",
"^	c #903B08",
"/	c #D4B208",
"(	c #F6E508",
"_	c #E5D408",
":	c #7F3B19",
"<	c #C3B208",
"[	c #7F4C08",
"}	c #C3A108",
"|	c #905D19",
"1	c #F6D408",
"2	c #A14C08",
"3	c #E5C308",
"4	c #B25D08",
"5	c #6E2A08",
"6	c #B27F19",
"7	c #E5A108",
"8	c #D47F08",
"9	c #B26E19",
"0	c #2A0808",
"a	c #B27F08",
"b	c #A17F08",
"c	c #D4A108",
"d	c #E5B208",
"e	c #C35D08",
"f	c #C39019",
"g	c #C37F08",
"h	c #5D2A19",
"i	c #5D1908",
"j	c #B24C08",
"k	c #6E5D08",
"l	c #D4B219",
"m	c #C3A119",
"n	c #B2A108",
"o	c #A19008",
"p	c #D4D408",
"q	c #F6F608",
"r	c #907F08",
"s	c #A16E19",
"t	c #6E4C08",
"u	c #B26E08",
"v	c #903B19",
"w	c #7F2A08",
"...+@##+.......@+$@....",
"..#%&%*+......=-;>>=...",
".+,')';$!....+$%'~{@...",
".]^/(_%$!....+:<((/[...",
"..{_('{*+....$-<((}|+..",
"..{1('2^+....$,&((&-+..",
"..;_(345.....@,%__6[...",
"..;1(78$.....@*9'_6>@..",
"..#/(78*....05*a__b>@..",
"..#c)de^+...]5*&)(f>@..",
"..[a}&e:#.!]]5*&)(}|+..",
".@g/)'4**h+#$*,}((f-!..",
".ijc)3----$:-,*&)_6>!..",
".]ed((}66b=k%~a/_'9|+..",
".]2d((_lmnopp__)(_6-+..",
".#edq(('}&r</s}/))a^#..",
".#e3q(g2,,#t|---<_9>#..",
".#ed((2^^^$$*--><'s9$..",
".]u~_3>v^5@@]5*s'_6>#..",
".+%/_3u#]....@->6'6>=..",
"..{3)/u5@....+,sf'6>@..",
"..^d<625@....@,>9_&[...",
"..*d)c4#.....5->m's*...",
"..^d(12#.....#>s3_{^]..",
"..,3(_[$!....#,%__a>#..",
"..j3();5!....],{_(/|@..",
".+jd('t@.....+*a_)}>$..",
".+43)}*#.....+^~))}>$..",
".+^~)a*].....@,~)_~[+..",
"..w^{^*+.....@-2~g{$...",
"..]i]5#.......#^,,*!...",
".......................",
".......................",
".......................",
".......................",
".......................",
".......................",
".......................",
"......................."};

