/* XPM */
static const char * a_i_xpm[] = {
"23 39 17 1",
" 	c None",
".	c #020202",
"+	c #C2A80A",
"@	c #89460A",
"#	c #712C0A",
"$	c #5E260A",
"%	c #4E1B0A",
"&	c #914F0A",
"*	c #95630A",
"=	c #3C1A0A",
"-	c #9E720A",
";	c #2B0E0A",
">	c #A6760A",
",	c #7E450A",
"'	c #BA990A",
")	c #D0BC0A",
"!	c #7D3A0A",
"...........;=..........",
"........;%#!#=.........",
"........%#!>*#%........",
"........$#&+'#$=.......",
".......=#!>)'!%........",
".......%#!'))@$=.......",
".......$#!')+@#%.......",
".......$#!+)+@#$.......",
".......=$&')'@#=.......",
"........$&')>##=.......",
".......;#&'+-!#;.......",
".......;#*+)>!#=.......",
"........$&')>##=.......",
"........%!')'!#........",
"........%!+)+!#=.......",
"........$!')'##=.......",
"........$!')',#;.......",
"........$!+)+@#%.......",
"........$!')+@#$;......",
".......=#!')+&#$.......",
".......;#&+)'@#%.......",
"........%@+)'##%.......",
"........%@+)'!#=.......",
"........%@+)'##%.......",
"........%&+)'!#%.......",
"........%,+)+!$%.......",
"........=!-+'!#%.......",
"........%!*+-#$%.......",
"........=#,-,##=.......",
"........=%#%%%%=.......",
"........=.;.;;.........",
".......................",
".......................",
".......................",
".......................",
".......................",
".......................",
".......................",
"......................."};
