/* XPM */
static const char * a_j_xpm[] = {
"23 39 40 1",
" 	c None",
".	c #000000",
"+	c #5D1908",
"@	c #6E2A08",
"#	c #5D2A08",
"$	c #2A1908",
"&	c #3B1908",
"*	c #7F2A08",
"=	c #A15D08",
"-	c #A16E08",
";	c #B25D08",
">	c #E5C308",
",	c #E5D408",
"'	c #C39008",
")	c #6E3B08",
"!	c #7F3B08",
"~	c #C3A108",
"{	c #E5E508",
"]	c #D4B208",
"^	c #4C1908",
"/	c #B27F08",
"(	c #C37F08",
"_	c #C36E08",
":	c #903B08",
"<	c #2A0808",
"[	c #B24C08",
"}	c #B26E08",
"|	c #D4C308",
"1	c #A14C08",
"2	c #904C08",
"3	c #D49008",
"4	c #7F4C08",
"5	c #A13B08",
"6	c #C35D08",
"7	c #D4A108",
"8	c #F6D408",
"9	c #D47F08",
"0	c #F6E508",
"a	c #4C2A08",
"b	c #E5B208",
"..............++@##$...",
".............&**=-;#...",
".............+*->,')...",
".............@!~{{])...",
".............^!'{{/#...",
".............&!(,,=@...",
".............^*-,,(!...",
".............^*/,>_:<..",
".............^*/>>;*&..",
".............^:/,,(@...",
".............^[/,{':...",
".............^[',{':...",
".............&:'{,(!...",
".............^*-{,=@$..",
".............^*={>=*$..",
".............&*}{,}:...",
".............<*;,|;1...",
".............^!},>_2$..",
".............&:_,,}:&..",
".............&:(,>}:&..",
".............&@(,>}1&..",
"....#^^......&@3,,}@&..",
"...@11!##<...$4]{|2@...",
"..&2(]}!5@...#}>{]1#...",
"..<},{>15:^&#16>,([@...",
"...!7{895!!!:[3{,(1#...",
"...@1308_=1:[38086!<...",
"...a:680>/=(7{086:^....",
"....#63b':!2/b3[:@.....",
".....+::)#@@!:**@......",
"......^^^..<&@@#&......",
".......................",
".......................",
".......................",
".......................",
".......................",
".......................",
".......................",
"......................."};

