/* XPM */
static const char * a_k_xpm[] = {
"23 39 53 1",
" 	c None",
".	c #000000",
"+	c #3B1908",
"@	c #5D2A08",
"#	c #4C2A08",
"$	c #5D1908",
"%	c #7F2A08",
"&	c #A14C08",
"*	c #7F3B08",
"=	c #2A1908",
"-	c #904C08",
";	c #6E2A08",
">	c #903B08",
",	c #B25D08",
"'	c #B27F08",
")	c #C39008",
"!	c #A15D08",
"~	c #4C1908",
"{	c #D49008",
"]	c #E5D408",
"^	c #6E3B08",
"/	c #E5E508",
"(	c #B26E08",
"_	c #D4B208",
":	c #F6F608",
"<	c #2A0808",
"[	c #C37F08",
"}	c #E5C308",
"|	c #A16E08",
"1	c #F6E508",
"2	c #B24C08",
"3	c #C36E08",
"4	c #E5A108",
"5	c #C3B208",
"6	c #D4A108",
"7	c #C35D08",
"8	c #902A08",
"9	c #C3A108",
"0	c #D4D408",
"a	c #B2A108",
"b	c #D4C308",
"c	c #B29008",
"d	c #906E08",
"e	c #E5B208",
"f	c #A17F08",
"g	c #6E4C08",
"h	c #7F5D08",
"i	c #7F6E08",
"j	c #4C3B08",
"k	c #5D4C08",
"l	c #905D08",
"m	c #7F4C08",
"n	c #905D19",
"....+@#........+.+.....",
"...$%&*=......+&*-@....",
"..+;>,-;......@,')!#...",
"..~>{]'^=...+*-)/](@...",
"..@&{/_-+..+*-'/:]!@<..",
"..^&[/}!~..@-|]11)>;+..",
"..@231},;@;&!}:1_&;+...",
"..@&[]4,%;--51:_!>@....",
"..^&[]67;*&|/:]'>8;....",
".+*-[9)>%*-0/])>%;+....",
".<@&()'2>-a/b'>%@=.....",
".$;,_/b,&(//c->*+......",
"..@26/}&d/:],>*~.......",
"..~7e11_]:19&>%$.......",
"..~&e11/115&>>@........",
"..@7e1b9]/_!-*~........",
"..@,909d505f^#~........",
"..@*^dg^dhiij++........",
"..~@gah^^^hkf^@+.......",
"..+>9]9lm*|_]_&;<......",
".<;-]/_(!&!']1_&@......",
".+;*)]b'->>-91/9&~<....",
"..+*']b)-%>>-__b|;@=...",
"..+%9]b|*%>->||fnl;$...",
"..$>)}b|-$$;&&ll|5-%~..",
"..<&[}_-@<<~@@*!_/_!^=.",
"..+26]]d^=....@&_1]bl$.",
"..+,_]9-&@...=*>&9]]|@.",
"..+>[_'-;=....+@*&)b'@.",
"...*((->*+.....+;%-!^+.",
"...#***%*=......+$@$$..",
".......................",
".......................",
".......................",
".......................",
".......................",
".......................",
".......................",
"......................."};

