/* XPM */
static const char * a_l_xpm[] = {
"23 39 46 1",
" 	c None",
".	c #000000",
"+	c #3B1908",
"@	c #4C1908",
"#	c #5D2A08",
"$	c #5D1908",
"%	c #6E2A08",
"&	c #904C08",
"*	c #6E3B08",
"=	c #7F2A08",
"-	c #B26E08",
";	c #C3A108",
">	c #A16E08",
",	c #903B08",
"'	c #D4A108",
")	c #E5E508",
"!	c #C3B208",
"~	c #7F4C08",
"{	c #2A1908",
"]	c #E5B208",
"^	c #F6E508",
"/	c #D4B208",
"(	c #D47F08",
"_	c #E5D408",
":	c #B27F08",
"<	c #C39008",
"[	c #7F3B08",
"}	c #A15D08",
"|	c #4C2A08",
"1	c #A14C08",
"2	c #E5C308",
"3	c #904C19",
"4	c #2A0808",
"5	c #B29008",
"6	c #D4C308",
"7	c #7F5D08",
"8	c #B2A108",
"9	c #7F4C19",
"0	c #905D08",
"a	c #7F3B19",
"b	c #B25D08",
"c	c #C37F08",
"d	c #A16E19",
"e	c #A15D19",
"f	c #A13B08",
"g	c #905D19",
"....+@#+...............",
"...$%&&*+..............",
"..+=-;>*#..............",
"..@,');*#..............",
"...,')!~#..............",
"..{&]^/&+..............",
"..+,(_-&+..............",
"..+,'_:&+..............",
"..+%'_-&+..............",
"..@*'_<[{..............",
"..@&:<},+..............",
"..@}</},@..............",
"..|&</&=+..............",
".+[1]_>[@..............",
"..@,2_:3#4.............",
"..%}2_;&#..............",
"..|,/_5&*{.............",
"..+&]6}[#4.............",
"..#[(:&&%..............",
".{*&';}&#..............",
"..#&/6:&*+.............",
"..#&/_7[#{+.4..........",
"..#&2_5[[|#.|{4+4.4....",
"..#18_5&&39|@+#*|++....",
"..|}8_;&339*#####*|+4..",
"..+}8_/0[[[999a***|#|..",
"..+b;__6;::;:5:5&[*+{..",
"..+b:6__________;&9+...",
"..+,&c/</;<:;//;de*4...",
"...=,f&33333333g&3@....",
"...+%%%[%@@a9*#*%|.....",
".......................",
".......................",
".......................",
".......................",
".......................",
".......................",
".......................",
"......................."};

