/* XPM */
static const char * a_m_xpm[] = {
"23 39 40 1",
" 	c None",
".	c #000000",
"+	c #3B1908",
"@	c #5D2A08",
"#	c #4C2A08",
"$	c #6E3B08",
"%	c #903B08",
"&	c #4C1908",
"*	c #7F3B08",
"=	c #A16E08",
"-	c #905D08",
";	c #6E2A08",
">	c #7F4C08",
",	c #B27F08",
"'	c #E5D408",
")	c #C3B208",
"!	c #904C08",
"~	c #2A0808",
"{	c #906E08",
"]	c #D4C308",
"^	c #C39008",
"/	c #2A1908",
"(	c #E5E508",
"_	c #D4B208",
":	c #C37F08",
"<	c #C3A108",
"[	c #A14C08",
"}	c #B25D08",
"|	c #E5C308",
"1	c #D4D408",
"2	c #F6E508",
"3	c #A15D08",
"4	c #B29008",
"5	c #D49008",
"6	c #A17F08",
"7	c #C36E08",
"8	c #7F5D08",
"9	c #B26E08",
"0	c #6E4C08",
"a	c #5D3B08",
"..+@#..........#$$@+...",
"..$%$&........#****$+..",
".+*=-$+.......&;$->*@..",
".@,')!@+.....~$!{]^!$/.",
".>](',>*+....+*>_'_-@..",
".#:''<!*$/../&*{]'<[;+.",
".;}|(]=!*+./$$><1('=;@.",
".+,''|_-*+.&**=]'('=@/.",
".&:('2',!@.+$-_']']3*+.",
".@^(]]]]=!@&$<']<'',*+.",
".&:(_3)(]3**>]',3_(<@..",
".+^(_!,'(<!*4(]3!^'^@..",
".@5(]!!^']6{'()>>_'4$..",
".@:''3;*)']'()*!!](4;..",
".*7''=@*>](('=!%8'',+..",
".@9''=@*!6'()0*!8((4+..",
".$7'<-&;!>)'6*%%{((,#..",
".*^(<!/+*%>)>!*!-](:*&.",
".*:'<!/.+*!$*!*!!_':*/.",
".@9]^!+..@%%!*#$!_2^$..",
".&:'_3&...+$@+/*!<'<$+.",
".&9]4$&.......+*!_(_>+.",
".&9]=;........+%!_'_!@.",
".&9'-$........+*-'24*~.",
".+9'<*+.......+*-'',*/.",
".@9]4>&......./*!^'!*..",
".@9|^!$........$!<'!*/.",
".@9'_!!+.......@!_(4*..",
"+*3_<!$........#!9],$~.",
".#!33!@........@!!==*+.",
"..@$*@.........+%*%a+..",
".......................",
".......................",
".......................",
".......................",
".......................",
".......................",
".......................",
"......................."};

