/* XPM */
static const char * a_n_xpm[] = {
"23 39 17 1",
" 	c None",
".	c #040302",
"+	c #DEC109",
"@	c #A59806",
"#	c #823A0A",
"$	c #6E3709",
"%	c #5B2A08",
"&	c #B08609",
"*	c #4B2007",
"=	c #3C1C09",
"-	c #A56E09",
";	c #311406",
">	c #EFDB0A",
",	c #92500B",
"'	c #2A1208",
")	c #CAA70A",
"!	c #AE550A",
"..'=...........=;;.....",
"..%#$$%''''';;*##,$....",
".;#,&,#%%*****#-))-#...",
".*,)+&,$=****%$)>>-,*..",
".,&))&,%'....'%@@@$$%..",
"'#-+>>&,#%%$*$,>>+,#=..",
"'#!+>>+,$=**'=#++@-$=..",
"'$->>>>&#%...%#+@>&,%..",
"'$!>>>>)!#%%%%#->>&!$..",
"'#!+>>>+&,%##%$+>>&!%..",
"'$-+>>+>)-$%,%#+>>)!%..",
".%!+>>+>+&,#%%,+>>),$..",
"'%-+>+)+>+-%$$#)>>),%..",
"*$,+>)!)>>)$%%#)>>),=..",
"*$#+>),-+>+&,$*&>>),=..",
"'%,+>)#,&+>)!,#&)>),%..",
".$!+>)##-+>+&,#)))&,#*.",
"'#!+>)$$,&>>)-,&>@&,#*.",
".$,)+@$%$,)++&,,+@,,$..",
".#!)>)#$##&+>+-,+>,,#%.",
".%!)>),$*$,)>>)!)+,#$%.",
".*,)>&#$%=#-+>+&@>-=#%.",
".*,)>-$$';$,&+>))>,%%=.",
".*,)>@$%'.'*,)>>>)-##'.",
".=,)@&,$=...%&+>)@),#;.",
".=!)>@$$*...;,)>@>&$#..",
".%,)>>$%;....%&&>>&$#..",
".%,)>+,%.....;$)>>+##;.",
".*,)>+,=......%,+>>,#..",
".'$,&!#=.......%&+)$*..",
"..***%%........=$,,%=..",
"...............'**'....",
"................''.....",
".......................",
".......................",
".......................",
".......................",
".......................",
"......................."};
