/* XPM */
static const char *a_o_xpm[] = {
/* width height num_colors chars_per_pixel */
"    23    39       16            1",
/* colors */
". c #000000",
"# c #d07810",
"a c #702808",
"b c #b04c10",
"c c #401808",
"d c #883008",
"e c #582410",
"f c #783410",
"g c #501c08",
"h c #f0d010",
"i c #e0a810",
"j c #f0ec10",
"k c #c05c10",
"l c #280c00",
"m c #983c10",
"n c #d88c10",
/* pixels */
".......llllcccegc......",
"......ceaaegeefaagl....",
".....laddmbmdadmmagl...",
".llllambnhjhhiiinkaec..",
"llllemkhjjininhjhkmfac.",
"lllcfkhjhnbmmmkhj#mmdal",
"llcemijjnbmfffm#hndbmdg",
"lledbhjhkbmaafmk#k#kbda",
"lcfm#jjnbbdaeedbbki#bma",
"lgdkijibbmdeeefmmkhi#ma",
"lfbnhhnbbbfegeeaakhiibd",
"cbbihhkbbmaggegefkhhhka",
"akkijnmdddgclgeefbnijkd",
"mkkiimdmmaclllgambkhjna",
"mk#hmmbbdcll.lceab#jjnd",
"bknhnkbmmgcl.lcgem#jjim",
"bk#hhkbbdgcllllgem#jjnm",
"bk#jh#bmmgcclllgfmkhjnm",
"mkkhhikbdgclllcgmmbnjnd",
"fbbnjhkbmgccllcfmb#khkm",
"abmijhkbmdgclcemmkinikd",
"ema#hh#bbmegccefmkh##ma",
"cmd#jjnkkbfgcgedbijkbmg",
"cadbhhh#kbmagafmkhhmbmc",
"leddnhjikbmaadmknj#mmfl",
".cffbhjj#kmammb#hidmmal",
".ledmnjjh#mmmmkhhbmmag.",
".lcfamnjjh#iinhikkmael.",
".llcefmkii#hin#nnbagl..",
".lllcafmbdeeedkkmecl...",
".l..lcafegggeadfell....",
".......................",
".......................",
".......................",
".......................",
".......................",
".......................",
".......................",
"......................."};

