/* XPM */
static const char * a_p_xpm[] = {
"23 39 17 1",
" 	c None",
".	c #020202",
"+	c #E4CC0B",
"@	c #B96011",
"#	c #933A12",
"$	c #763411",
"%	c #5D290A",
"&	c #4E200A",
"*	c #C47E10",
"=	c #3A1D0A",
"-	c #C9920F",
";	c #9F7910",
">	c #F4E90A",
",	c #321E0A",
"'	c #2A140A",
")	c #9C5113",
"!	c #D8AB0B",
"....===&%%%$%%%&,......",
"...&%$%%%$#))@)%,,.....",
"..=%@!!!*@@-!!+*#&,....",
"..&#->>>!@)!+++>!#&,...",
"...#->>+-*;@*!-+>-$&...",
"...)+>>*@))))))-++@%,..",
"...$->+*)#%%%%#@-+!$&..",
"...$->-@)&,..,%)->+$&,.",
"...%)+*#%'...'=%;>!&...",
"...%-+;$,...',,,$+-....",
"...$++!)%'....%)*+!=...",
"...$!+!@$&'.'%#@-!-$&,.",
"..%*+++)$$$%%#@!++*$,..",
"..&)*>!)))))@@@!>+@%...",
"..&@!>>!*)#@)!+>>*$,...",
"..&)!>>>+!);+>>+@@$,...",
"..%@!>>++-)));)$##%....",
"..%@!>!)))$$%%$#$&.....",
"..%@!>+##$%#%%%%=......",
"..&)!+!)%%'&='.,'......",
"..=)+>!)&'.............",
"...)+>*$...............",
"...$!>*#...............",
"...$@+)$...............",
"..=)!!@=...............",
"..,#!+)&...............",
"..%#!+@#=..............",
"...)-+@%...............",
"..%)@!)%...............",
"..%#$##=...............",
"...=&&%................",
".......................",
".......................",
".......................",
".......................",
".......................",
".......................",
".......................",
"......................."};
