/* XPM */
static const char * a_q_xpm[] = {
"23 39 44 1",
" 	c None",
".	c #000000",
"+	c #3B1908",
"@	c #5D2A08",
"#	c #4C1908",
"$	c #6E2A08",
"%	c #7F3B08",
"&	c #7F2A08",
"*	c #903B08",
"=	c #B24C08",
"-	c #D49008",
";	c #F6D408",
">	c #F6E508",
",	c #E5A108",
"'	c #C35D08",
")	c #D47F08",
"!	c #5D1908",
"~	c #2A0808",
"{	c #2A1908",
"]	c #A14C08",
"^	c #B25D08",
"/	c #A13B08",
"(	c #5D2A19",
"_	c #903B19",
":	c #904C19",
"<	c #7F3B19",
"[	c #A16E19",
"}	c #C3B208",
"|	c #C37F19",
"1	c #C3A119",
"2	c #E5E508",
"3	c #D4C308",
"4	c #B26E08",
"5	c #E5C308",
"6	c #A15D19",
"7	c #E5D408",
"8	c #C36E08",
"9	c #A15D08",
"0	c #D4B208",
"a	c #905D08",
"b	c #6E3B08",
"c	c #B2A108",
"d	c #906E08",
"e	c #6E3B19",
"...........+++@#+......",
"......+@$$@#@@%$$#.....",
"......$&&*=*&$&**$#....",
".....$*=-;>;;,,,-'$@+..",
"....@*';>>,-,-;>;'*%$+.",
"...+%';>;-=***';>)**&$.",
"..+@*,>>-=*%%%*);-&=*&#",
"..@&=;>;'=*$$%*')')'=&$",
".+%*)>>-==&!+#&==',)=*$",
".#&',>,==*+~++$**';,)*$",
".%=-;;-==@...~{$@';,,=&",
"~*=,;;'=@...~.~~+';;;'$",
"+]',>-*&~.....~.+=-,>'&",
"{^',,*&+........#*';>-$",
"~');**/~........+%)>>-&",
"+]-;-'/~........~*)>>,*",
"+]);;'=+.........%)>>-*",
"+])>;)=+.......~.%';>-*",
"+]';;,'.~......~~*=->-&",
".]=->;'@......~~+=)';'*",
"~=*,>;'=+~..##(@#',-,'&",
"~*$);;)=#~.#_::<<^;))*$",
".*&)>>-'@#.+_[}[_|>'=*#",
".#&=;;;)@@++@12345;*=*+",
".+&&-;>,%$$#@67>7>)**%.",
".~%%=;>>8^*$*_^2>29**$.",
"..@&*->>;)****';>>5/$#.",
"..+%$*->>;),,-;,022a@..",
"...+@%*',,);,-)--0>3@~.",
"....+$%*=&@@@&''*bcd<+.",
".....+$%@###@$&%@#e@<+.",
".......................",
".......................",
".......................",
".......................",
".......................",
".......................",
".......................",
"......................."};

