/* XPM */
static const char * a_r_xpm[] = {
"23 39 77 1",
" 	c None",
".	c #000000",
"+	c #3B1908",
"@	c #5D1908",
"#	c #5D2A08",
"$	c #6E2A19",
"%	c #6E3B19",
"&	c #4C1908",
"*	c #2A1908",
"=	c #6E3B08",
"-	c #6E2A08",
";	c #7F3B19",
">	c #903B19",
",	c #904C19",
"'	c #A15D19",
")	c #B25D08",
"!	c #D4A108",
"~	c #C3A108",
"{	c #B27F19",
"]	c #B29019",
"^	c #C3B208",
"/	c #D4A119",
"(	c #E5C308",
"_	c #C37F08",
":	c #903B08",
"<	c #E59008",
"[	c #F6E508",
"}	c #F6F608",
"|	c #E5B208",
"1	c #C36E19",
"2	c #A14C19",
"3	c #D4B219",
"4	c #E5D408",
"5	c #E5A108",
"6	c #D49008",
"7	c #C39019",
"8	c #C37F19",
"9	c #A16E19",
"0	c #B26E19",
"a	c #C39008",
"b	c #904C08",
"c	c #D47F08",
"d	c #B25D19",
"e	c #7F3B08",
"f	c #A14C08",
"g	c #C36E08",
"h	c #6E4C08",
"i	c #A17F08",
"j	c #7F4C08",
"k	c #4C2A08",
"l	c #2A0808",
"m	c #E5E508",
"n	c #D4B208",
"o	c #907F08",
"p	c #4C3B08",
"q	c #191908",
"r	c #3B2A08",
"s	c #5D4C08",
"t	c #D4C308",
"u	c #A19008",
"v	c #A16E08",
"w	c #B27F08",
"x	c #C35D08",
"y	c #C35D19",
"z	c #7F2A19",
"A	c #F6D408",
"B	c #B24C08",
"C	c #7F2A08",
"D	c #C3A119",
"E	c #D4C319",
"F	c #A15D08",
"G	c #A13B19",
"H	c #D4D408",
"I	c #D46E08",
"J	c #4C4C08",
"K	c #5D2A19",
"L	c #B26E08",
"....+++@##$%$##&*......",
"...&#=--$;>,,',#**.....",
"..+-)!!~{'']^/(_>&*....",
"..&:<[}[|123444[5>&*...",
"...:6[[(78908!a4[6%&...",
"...b4[[cd2,2222a(4d#*..",
"...e6[4cf:--#->d74!%&..",
"...e|[!gb&*..*$2a[4;&*.",
"...+hi_jkl...l+-imn&...",
"....+-op*...q*rrstu....",
"...*=v!f-l....k,w(n+...",
"...=~(|x;@l.l#>y656z&*.",
"..kc(A4BCC%$$>d!(4_;*..",
"..@Bc[|2j,,,d10n[4d#...",
"..&x|}[n82>'2!4m[8;*...",
"..&f|[[m(D29E[[4Fd;*...",
"..#x|}mtt7,0t72e>>$....",
"..#x|}^b222]44>>e&.....",
"..#x|}(:G>>,H[9%+......",
"..&B|A|fC;>,~mm'$......",
"..+f(}|fe-%;,[mt>+.....",
"...b([I:..&k;wm[{;.....",
"...e|[_:...l>=~[m,$....",
"...JF(be....&>'m[D;K...",
"..+f~n)+.....l,0m[D>&..",
"..*:~4B&......K>9m['>..",
"..-:n4F>+.....l$>vmm'+.",
"...fa(Fk.......&;,~[]$.",
"..#fL!2#.......l;>;^D>.",
"..#:C::+.........&>>;;.",
"...+@@#...........l;+..",
".......................",
".......................",
".......................",
".......................",
".......................",
".......................",
".......................",
"......................."};

