/* XPM */
static const char * a_s_xpm[] = {
"23 39 17 1",
" 	c None",
".	c #130202",
"+	c #E8CA0E",
"@	c #DEAC0E",
"#	c #A85612",
"$	c #894116",
"%	c #632D12",
"&	c #361202",
"*	c #9A7C0F",
"=	c #B65A26",
"-	c #C67918",
";	c #EEE70A",
">	c #926012",
",	c #241202",
"'	c #4E2E12",
")	c #4A2611",
"!	c #CD9012",
"......&&&)'))%)))&.....",
"....&&)%$!*>$>#$)&&....",
"...,)#--@;;+@@@@-$)&...",
"..,,$-;;;;;;;+;;;!$)&..",
"..,)-;;;@-$---@;;;-%)..",
".,&%!;;@=$))$$$-;;!$&,.",
".&)$@;;-$)&&&))$!!$)...",
".&&-@;!=$&..&.,)$%%),,.",
".&)#+;-=$&......,,&,...",
".,)$@;-#=)........,,...",
".,)%!;@==#)&&,,........",
"..)%@;+@-=#))&,..,,....",
".,)%$@++@-$&))&,,.,....",
"..&)%$-+;;@>%))))&.....",
"..,,&)%*@;;;!>%%%)&,,..",
"....,,))'*@+;+*>$%)),..",
"...,,,&))%%$---@+!%%),.",
"....,,,,,)%%%$#!;;-%)&.",
".....,...,&&)))$@;;!%&&",
"............,&))>@;@-)&",
"..............&))*;@@$&",
"...............))%@;@$&",
"...,,..........&)$+;+$&",
"..,)&,&&,......&%$+;+)&",
"..&)))))&.....&)#-@+-)&",
"..&%>!*$$&..,)%$-!!@%&.",
"..&$@;+@$)&&)%$-!!;-)&.",
"..&$+;;+@!#!---@@;!$)..",
"..,&#@;;;;!;;@!;;@=)&..",
"...&)$-++@*++@@+-#$&...",
"....&&)$#$'>>$#$))&....",
".......................",
".......................",
".......................",
".......................",
".......................",
".......................",
".......................",
"......................."};
