/* XPM */
static const char * a_t_xpm[] = {
"23 39 58 1",
" 	c None",
".	c #000000",
"+	c #3B1908",
"@	c #4C1908",
"#	c #4C2A08",
"$	c #5D2A08",
"%	c #5D2A19",
"&	c #7F3B19",
"*	c #6E2A08",
"=	c #903B19",
"-	c #903B08",
";	c #7F3B08",
">	c #7F4C08",
",	c #6E3B19",
"'	c #6E3B08",
")	c #A14C19",
"!	c #A14C08",
"~	c #C39008",
"{	c #A17F08",
"]	c #7F5D08",
"^	c #4C3B08",
"/	c #7F6E08",
"(	c #C3A108",
"_	c #D4B208",
":	c #B29008",
"<	c #A16E08",
"[	c #906E08",
"}	c #6E4C08",
"|	c #A15D19",
"1	c #E5E508",
"2	c #C3B208",
"3	c #B2B208",
"4	c #E5D408",
"5	c #F6E508",
"6	c #E5E56E",
"7	c #D4D408",
"8	c #A19008",
"9	c #A1A108",
"0	c #C39019",
"a	c #B2A108",
"b	c #7F7F08",
"c	c #D4C308",
"d	c #B27F08",
"e	c #2A0808",
"f	c #904C19",
"g	c #B26E19",
"h	c #B27F19",
"i	c #B24C19",
"j	c #2A1908",
"k	c #E5D419",
"l	c #904C08",
"m	c #A15D08",
"n	c #6E5D08",
"o	c #C3C308",
"p	c #5D3B08",
"q	c #D4A108",
"r	c #5D1908",
"s	c #4C4C08",
"..+++@#$$@%$@@$++&*@+..",
".+=-=;;&$;>,;'&#+$*-=$.",
".,)!~~{]^/(_~:<[}#]:|=+",
".=)~11232415441678940)@",
".=)|(a8a2441144(48bcd,e",
".$=f)'#>|g_14{fff>$>;+.",
".e+'f*@&f)h4_fi)*+@$@..",
"...@$+$$*i{12fi&*j$*+..",
"....+j+';){5k|==##@e...",
"......$$@'a54>=;@$.....",
"......@$*l21cl=$$+.....",
".......e$<412-=*#......",
"........$l21cl=*+......",
".......j*=<44m-;+......",
".......e+&[14l;$e......",
"........j@/17m*@#......",
".......e*'no/p*++e.....",
".......e*;:1/+';e......",
"........;)(1a#@#e......",
".......+=)(4a*+e.......",
".......+=iq1(;*+.......",
".......e)ih18;-@.......",
".......e=id1:))$.......",
".......e=i~5:-=r.......",
"........&idc<-)$.......",
"........$):cd-)&e......",
"........+;dc:;f$.......",
"........j*<4ap*e.......",
"........e++/sjee.......",
"........@'$+j#*+.......",
"........++e..++........",
".......................",
".......................",
".......................",
".......................",
".......................",
".......................",
".......................",
"......................."};

