/* XPM */
static const char * a_u_xpm[] = {
"23 39 62 1",
" 	c None",
".	c #000000",
"+	c #3B1908",
"@	c #4C1908",
"#	c #5D2A08",
"$	c #5D1908",
"%	c #6E2A08",
"&	c #904C08",
"*	c #6E3B08",
"=	c #B26E08",
"-	c #C3A108",
";	c #A16E08",
">	c #7F2A08",
",	c #4C2A08",
"'	c #E5E508",
")	c #903B08",
"!	c #D4A108",
"~	c #E5D408",
"{	c #B29008",
"]	c #5D3B08",
"^	c #D4C308",
"/	c #C3B208",
"(	c #7F4C08",
"_	c #D49008",
":	c #C3C308",
"<	c #906E08",
"[	c #2A1908",
"}	c #7F5D08",
"|	c #A19008",
"1	c #7F3B08",
"2	c #A1A108",
"3	c #A15D08",
"4	c #907F08",
"5	c #6E4C08",
"6	c #A17F08",
"7	c #B27F08",
"8	c #905D08",
"9	c #2A0808",
"0	c #D4B208",
"a	c #C39008",
"b	c #B2A108",
"c	c #A14C08",
"d	c #E5B208",
"e	c #E5C308",
"f	c #7F4C19",
"g	c #903B19",
"h	c #B27F19",
"i	c #6E2A19",
"j	c #191908",
"k	c #904C19",
"l	c #7F3B19",
"m	c #C37F19",
"n	c #A14C19",
"o	c #B26E19",
"p	c #B25D19",
"q	c #C37F08",
"r	c #F6E508",
"s	c #C39019",
"t	c #E5A108",
"u	c #6E3B19",
"v	c #7F2A19",
"w	c #5D2A19",
"....+@#+.........+@#+..",
"...$%&&*+.......$%&&*+.",
"..+%=-;*#......+>=-;*,.",
"..+%-'-*#......@)!~{]+.",
"...#;^/(#.......)_:<#,.",
"..[%}|{(+......[1|2<*+.",
"..+1345*+......[#(|3&+.",
"..+)!/(#+......[#6^7&+.",
"..+%!~8#[......9#-~=&+.",
"..@*0~{*9......+*!~a1[.",
"..@(-^;#[......+*607*+.",
"..+*!~;#[......9#!~a&+.",
"..@*0~{*9......+*0~-1[.",
"..+({b5#[.......#<b5#+.",
"..@17b1%+......+1{/&%+.",
".+1cd~;1[.....+1cd~=1[.",
"..@)e~a(.......@)e~a(..",
"..%3e~089......%3e~08[.",
"..,)0~7*[......@)0~a&+.",
"..+&db5#[......+1d^;1+.",
"..#&a}#*#......#fa-c)%.",
".[%({|8)#.....[%17-3)#.",
".[g(6{hi9..j..#k8/b&l+.",
"..%%|0mg#..[9[%na/{&i+.",
"..@*0eopg+#,@igna^{#@..",
"..+%/~0!plg*lnpa~'q@+..",
"..9%3~re!875;asertg[9..",
"..91pme~~^/^'r~~_g@[...",
"...#llpq0|^b0~!pu@[....",
"....[[#lv**##luw@[.....",
".......9##il#ww+.......",
".......................",
".......................",
".......................",
".......................",
".......................",
".......................",
".......................",
"......................."};

