/* XPM */
static const char * a_v_xpm[] = {
"23 39 60 1",
" 	c None",
".	c #000000",
"+	c #2A1908",
"@	c #2A0808",
"#	c #3B1908",
"$	c #6E2A08",
"%	c #5D2A08",
"&	c #6E3B08",
"*	c #905D19",
"=	c #904C19",
"-	c #4C1908",
";	c #4C2A08",
">	c #903B19",
",	c #7F3B19",
"'	c #C3A108",
")	c #A16E08",
"!	c #6E4C08",
"~	c #B29008",
"{	c #B27F08",
"]	c #B27F19",
"^	c #D4D408",
"/	c #B2A108",
"(	c #7F4C08",
"_	c #6E2A19",
":	c #907F08",
"<	c #D4C308",
"[	c #D4B208",
"}	c #A14C19",
"|	c #C39019",
"1	c #E5D408",
"2	c #906E08",
"3	c #E5C308",
"4	c #B26E19",
"5	c #E5E508",
"6	c #C39008",
"7	c #A17F08",
"8	c #A15D19",
"9	c #D4A119",
"0	c #F6E508",
"a	c #A19008",
"b	c #7F3B08",
"c	c #A16E19",
"d	c #5D5D08",
"e	c #905D08",
"f	c #7F5D08",
"g	c #909008",
"h	c #C3B208",
"i	c #6E3B19",
"j	c #B29019",
"k	c #C3A119",
"l	c #E5C319",
"m	c #D4C319",
"n	c #B25D19",
"o	c #D4A108",
"p	c #904C08",
"q	c #B26E08",
"r	c #C37F19",
"s	c #D4B219",
"t	c #C37F08",
"u	c #5D3B08",
"..................+@...",
"...+##...........+$%+..",
"..#&*=-.........@;=>,;.",
"..%*')%#.......@-!~{=%.",
".#,]^/(-.......+_:<[}_.",
".#,|1<2%.......#,/<3}_@",
".@,415{%+......#=16|>%.",
"..;,<57&#......;{5[8,-.",
"..#$90a;-@....#b/5<}%..",
"..+%c5d;%#....%e<5|=;..",
".@$&,/df$#@..@${55],+..",
"..+-;!g/%#@@@#b'5<*b+..",
"....+(5hb%@@+%8[56,;...",
"....@i[5{b#..$411*&#...",
"....+%j5<}$#;,k5[=%....",
".....-c53*%-&=l5|,-....",
".....#*15]$%b8154,+....",
".....;,m5|=%bn3<8$.....",
"....#=$|16=$>4o'=%.....",
".....#-*/)p$=){qb#.....",
".....+-&ef!$(ff(-......",
".....#%,r31ij<[8$......",
"......@%r552<5<=-......",
"......#,830:559i.......",
".......-=s5:554%.......",
"........$|5/5[=#.......",
"........-)1a1tb+.......",
".........uh:1)#........",
".........#(f7&.........",
"..........#+;#.........",
"............#..........",
".......................",
".......................",
".......................",
".......................",
".......................",
".......................",
".......................",
"......................."};

