/* XPM */
static const char * a_w_xpm[] = {
"23 39 49 1",
" 	c None",
".	c #000000",
"+	c #2A0808",
"@	c #4C1908",
"#	c #3B1908",
"$	c #2A1908",
"%	c #6E2A19",
"&	c #6E2A08",
"*	c #5D2A08",
"=	c #4C2A08",
"-	c #6E3B19",
";	c #7F3B08",
">	c #7F4C08",
",	c #904C08",
"'	c #6E3B08",
")	c #7F4C19",
"!	c #7F3B19",
"~	c #A16E08",
"{	c #A17F08",
"]	c #A19008",
"^	c #905D08",
"/	c #B29008",
"(	c #C3A108",
"_	c #B2A108",
":	c #3B2A08",
"<	c #5D3B08",
"[	c #6E4C08",
"}	c #C3B208",
"|	c #A16E19",
"1	c #4C3B08",
"2	c #B27F08",
"3	c #D4B208",
"4	c #A15D08",
"5	c #D4A108",
"6	c #B26E08",
"7	c #D4C308",
"8	c #D4D408",
"9	c #C39008",
"0	c #E5D408",
"a	c #5D4C08",
"b	c #7F5D08",
"c	c #903B08",
"d	c #906E08",
"e	c #6E5D08",
"f	c #904C19",
"g	c #5D5D08",
"h	c #E5E508",
"i	c #E5C308",
"j	c #C3C308",
".+@@+...+###@$#...#@@$.",
".@%&*#..#=**-=@+.$*%%@.",
"$*;>*@.+@*>,'*#..#')-@.",
"=!~{=+.$*'{]'@#++=^/,@+",
"@>(_:+.+##<[:@@#+#[}|&#",
"#;/(1=.+*;2/>&=*#'/3|%#",
"#'~/1=..*,(34&=*@>(5^*#",
"+&~/=*$#;6772&@*=>((>=+",
".@^/1'=@'2782;=@=^39>@.",
"+=~}<>@*,/70(,'*={32;@.",
"#*4/a>=*^3803^*=*/3~=+.",
"=@,2ab**~77702'*'(3^@..",
"@@c^ad''~73}02'&^(/,*+.",
"+#;>e/,;/7//7/>!~39)@..",
"#*;[a]^,/}{{03,f2(|'$..",
"#*&':g[[ee<^77^f934*+..",
"+@&;[]{{_]>>}8~,(3^*+..",
".+@*a}(97(>'/7/~7(,&@..",
".#*&<(7(7_''273(h3>*@..",
".@*&=_077{'=~7i7h3>=@+.",
".@**={003~*=^3070('@#..",
".#*&=~70(^=@>3077~*=#..",
".#**@^70(>@#'(07(f*#...",
".$**#^309;@#'/00(>=#...",
".+**@>}02'#@'~009'#$...",
".$**#'/_^*##*bj7~;@+...",
".+=*##1a<#+.#=ee<@*+...",
"..#**&{}b#+.+*]_>#+....",
"...#@*,2[$..+=^~'=$....",
".....@;,=....+<,*#+....",
".....#*&$.....$*#......",
".......................",
".......................",
".......................",
".......................",
".......................",
".......................",
".......................",
"......................."};

