/* XPM */
static const char * a_x_xpm[] = {
"23 39 17 1",
" 	c None",
".	c #030202",
"+	c #D1BA0A",
"@	c #8B4612",
"#	c #6F2D0D",
"$	c #5C290A",
"%	c #B5930B",
"&	c #4B1E0A",
"*	c #391809",
"=	c #9A640F",
"-	c #2A0F0A",
";	c #7C580A",
">	c #E2D60A",
",	c #A77B0E",
"'	c #753C0D",
")	c #DACA0A",
"!	c #C7A60B",
"..-&&&*-........*#*-...",
".-$$$$&*.......-$'$$-..",
".*';='$*.......&#@=@$..",
"-$=!+,#$-.....*$@%!='..",
"-#=+>!@#*....*&#=+)=#..",
".&@,))='&...-$$@!+%@$..",
".*#@!>%'&-..*#$,)+='$-.",
".*$',)+'$*-*##$!>%'##*.",
"..&#'!+='&$#'''>+=#$*..",
"..*$&,>>,'###=')='&-...",
"..**&'%)!@##@%;!@#*....",
"..-*$'@+),@',>+,''*....",
"...*$'',+!=@+>%@'#*....",
"...-$''=!)!%)+'''&.....",
"...-$'#@,>>>>%$'$*.....",
"....*'@@=)>>+@*##&-....",
"....-$''=)>>)@&'##&....",
".....*$;,%+!%;$$$**....",
"....&'',))+>>,$''$-....",
"...-$'@%)!,+>);@'$*....",
"...*''=++,@=)),='$&-...",
"...*#@%>!@'@!),,'$&*...",
"..-&'=+),'#'=%;!,$&*...",
".**$;%>!@$##'@=)+=&*...",
"-$$'=)+=$$###';)),#$-..",
"*''@!>%'#&&&$#'+)%'#*..",
".$',)>=#$---*$&=)+@#*..",
".$=+)+;$&...-**;+>,'$-.",
".',)+=$--.....-',+,'#*.",
".$@=@#*........*;=;'*..",
".-$#'#-.........*$$$-..",
".......................",
".......................",
".......................",
".......................",
".......................",
".......................",
".......................",
"......................."};
