/* XPM */
static const char * a_y_xpm[] = {
"23 39 50 1",
" 	c None",
".	c #000000",
"+	c #2A0808",
"@	c #3B1908",
"#	c #6E3B19",
"$	c #5D2A08",
"%	c #2A1908",
"&	c #6E2A19",
"*	c #7F3B19",
"=	c #6E2A08",
"-	c #7F4C19",
";	c #906E19",
">	c #6E3B08",
",	c #905D19",
"'	c #A16E08",
")	c #904C19",
"!	c #B29019",
"~	c #D4C308",
"{	c #B29008",
"]	c #906E08",
"^	c #C3B208",
"/	c #B27F19",
"(	c #E5D408",
"_	c #905D08",
":	c #4C2A08",
"<	c #7F4C08",
"[	c #D4B208",
"}	c #A15D19",
"|	c #4C1908",
"1	c #A17F08",
"2	c #B26E08",
"3	c #A16E19",
"4	c #E5E508",
"5	c #C3A108",
"6	c #B27F08",
"7	c #A15D08",
"8	c #C39008",
"9	c #7F3B08",
"0	c #C39019",
"a	c #D4A108",
"b	c #B26E19",
"c	c #904C08",
"d	c #E5C308",
"e	c #D4D408",
"f	c #903B19",
"g	c #7F5D08",
"h	c #A14C19",
"i	c #907F08",
"j	c #6E4C08",
"k	c #3B2A08",
"...+@@...........@#@+..",
"..+$$$%.........+&*==%.",
"..@#-;-@........@>,')$.",
".%#*!~{>@.....+@$]^~/#+",
".+$*/(~_:+...+:$<~~[}$.",
"..@&*[('>|+...@=1(~2>|.",
"..@#>345-=@...|_^45)#*@",
"...@$>5~1$@++@>6(~7>$|.",
"...+|$-8~'=@%:,[('9|+..",
"...@||>3~5<$=*0(a)=@...",
"...%|$>,~~b99}[~2*>@...",
"....@$>90[5})8[5c*=%...",
"....+$>9}ada0~(69>:....",
"....%$=$<8((d(~7>:+....",
"....|=$@>3~4(~6>:+.....",
"....+@%.:-6e(8c|@......",
"........$c6[(6f>$+.....",
".......%=f75({f*|%.....",
".....+.+|*_^(8f=||+....",
"....+|%+=#g~({9=>:+....",
".....++%>9_~e69$=|+....",
"......@+=9'~({*9$:@@...",
".....+||9f'~(1>$$:|%...",
"....+@:=ff6e('=$$:|+...",
"..+%@::=*f6e('=$$|+....",
"..++@|$$*f6e(2f=$|%....",
"..++@|$$*)5(e2h=|@.....",
"....%@||=)5(e6h9%+.....",
".....+++|c{~~{}$.......",
"........%>_{^i>+.......",
"........+@:gjk%+.......",
".......................",
".......................",
".......................",
".......................",
".......................",
".......................",
".......................",
"......................."};

