/* XPM */
static const char * a_z_xpm[] = {
"23 39 45 1",
" 	c None",
".	c #000000",
"+	c #3B1908",
"@	c #4C1908",
"#	c #5D2A08",
"$	c #6E2A08",
"%	c #7F3B19",
"&	c #7F3B08",
"*	c #6E3B08",
"=	c #7F4C08",
"-	c #903B08",
";	c #904C08",
">	c #A14C19",
",	c #904C19",
"'	c #903B19",
")	c #7F5D08",
"!	c #B29008",
"~	c #C3A108",
"{	c #B2A108",
"]	c #2A0808",
"^	c #A17F08",
"/	c #D4B208",
"(	c #D4C308",
"_	c #E5D408",
":	c #A16E08",
"<	c #906E08",
"[	c #905D08",
"}	c #B27F08",
"|	c #C3B208",
"1	c #A14C08",
"2	c #C39008",
"3	c #7F2A08",
"4	c #B26E08",
"5	c #D4D408",
"6	c #2A1908",
"7	c #A15D08",
"8	c #6E5D08",
"9	c #6E6E08",
"0	c #4C3B08",
"a	c #5D1908",
"b	c #4C2A08",
"c	c #902A08",
"d	c #A13B19",
"e	c #B2B208",
"f	c #5D3B08",
"....+@#$$$$$$$$$$%#@@..",
"...+$&*=-&==&=;>,,,''@.",
"...#%*)!!!~{{{{!~~!;'#.",
"..]$'&^/((((((((___:'#.",
"..]@$&;:<)<[)[:}|_/;'@.",
"...++$$$&$$&&'>12((;&+.",
"....]+++@++@#'>}/~[&3+.",
"......]]].]+@&4/5}&%#].",
"..........]+#[~(|[3#+..",
"..........@#&}((^-$6...",
"........]@$3;~(~;3$+...",
"........+$-&:(/:&#+....",
".......]+#'={52;'@.....",
".......]+#&)(|7&%@.....",
".......+#-[8(^-&%#]....",
"......+@$;<9|;3$$@.....",
".....]@3-}{8}&#+]......",
".....]@&:/|0=$+........",
".....+a;!_{=&#]........",
"....]@$:(5^*&@]........",
"....]@&!_|;$$6.........",
"....]#[((:-$@..........",
"...@$&!5{;'#@..]..]]...",
"..]$-:((^-3#@]+$a@$b]..",
"..]*[|5{;'$#3$3c'''$]..",
"..@&}((^;,&#&%&-d>d'+..",
".+&;~_5|!!<8<^^^:7-&@..",
".+'-}(((55{8e((55/7-a].",
"..#';))[<)fbf)[:}:;&@..",
"..]$%&&&&#]]+$&'-&&'@..",
"...]@####+].]@@@##$#]..",
".......................",
".......................",
".......................",
".......................",
".......................",
".......................",
".......................",
"......................."};

