/* XPM */
static const char * ampersand_xpm[] = {
"23 39 32 1",
" 	c #000100",
".	c #0A0200",
"+	c #170800",
"@	c #1F0A00",
"#	c #260C01",
"$	c #321101",
"%	c #371401",
"&	c #401303",
"*	c #3F1C02",
"=	c #4A1901",
"-	c #561E03",
";	c #5E1C04",
">	c #702405",
",	c #672803",
"'	c #833007",
")	c #7A3606",
"!	c #A44707",
"~	c #9C4C07",
"{	c #935003",
"]	c #B26904",
"^	c #C26909",
"/	c #B97B05",
"(	c #DC8A09",
"_	c #D29305",
":	c #C59903",
"<	c #DDB204",
"[	c #ECC702",
"}	c #E9D104",
"|	c #EBDD00",
"1	c #F4DC00",
"2	c #F6E606",
"3	c #F6EF00",
"                       ",
"                       ",
"       .+@##@.         ",
"     .+#-,,,-%@+.      ",
"    .#%=,'))),-&$+     ",
"  .+#=,>>{//]]~';=+  . ",
"  .#=->'{:}[<<_{,,*.   ",
"  .$-;;{:13211}/>>-+  .",
" .+&;;,/|3|}}32_!>=+   ",
" .#=;;{<3|:/:|3<],=+   ",
" .$-;>][3}/!][3[/'-$.  ",
" .$=;'][3}_]/|3[^',&+  ",
" .#&>'~<3|<:[31(!,-%.  ",
"  +&,'!/}2|||[_^!;=@   ",
"  .$;>'~<332}(!!,-%+.  ",
"  +$;>'{<332[^',-&$+..+",
" .#&;>'/}2|2[/>;-&$###%",
".+&=;>~<3}[|1_';,;;;--&",
".#=-;'/2|<<}2:{;>'!~),&",
".$-;;~<3[(([3[]''~^^],&",
".$->>][3<!~<32_!]<<_/)=",
"+$;>~_12:'>/}2[_<3|_],*",
"+&;>]<2}/,={<1|}23[^)%@",
"@&>~_}3[];&;][233[(!&..",
"#&>~_}2[_{,>{<331(!,+  ",
"#&;']<1|[_//:}33}(~#. .",
"@&;;'/[2|[<<}2333<{#.  ",
"+$=->~_1321111[23[]-.  ",
".#=-;'~_<<<<:_]:<(^)$. ",
" .$-,''!~{~~~~),'!~)-#.",
" .+%->'>>>>>'',$=>),,$.",
"  .+$=,--;--,,*@#=,,-#.",
".  .+#%&&%$##@++#%=-&+ ",
"  .+++##+.... ..@@##@. ",
"   .++++.       ..... .",
"                       ",
"                       ",
"                       ",
"                       "};
