/* XPM */
static const char * approx_xpm[] = {
"23 39 17 1",
" 	c None",
".	c #020202",
"+	c #DCBD0E",
"@	c #A26312",
"#	c #884E0F",
"$	c #6D390C",
"%	c #562B0A",
"&	c #422107",
"*	c #B07D10",
"=	c #321806",
"-	c #BF900F",
";	c #221005",
">	c #CEA80E",
",	c #E3C80E",
"'	c #98630F",
")	c #180A02",
"!	c #EBD80E",
"......;==&&;)=&%&;)))..",
"....;=$$$#$$=%%##$&))..",
"....=%$*>>-'%%$>>'%;)..",
"...;$$@+!!!>#%$-!+'%;..",
"...$#'+,>>!!*$&'!!>%;..",
"...$#-!>@@+!>#%$-!>#&..",
"...$#>,-@#-!+@#$'>+'$..",
"...$#>,*$$@,!*##@+,'$..",
"...$#+!-#$%-!,@@-!+#;..",
"...%%',!-#$$-!!!!+#%=..",
"...)&$->*$%&#>!!>'%%=..",
"....&$'@#$&;%#->'$%&)..",
"....;;&$%&;));&$%&=)...",
"....))))))...)..)......",
".......................",
".......................",
".......................",
".......................",
".......................",
".......................",
".......................",
".......................",
".......................",
".......................",
".......................",
".......................",
".......................",
".......................",
".......................",
".......................",
".......................",
".......................",
".......................",
".......................",
".......................",
".......................",
".......................",
".......................",
"......................."};
