/* XPM */
static const char * at_xpm[] = {
"23 39 17 1",
" 	c None",
".	c #060202",
"+	c #DEBA0A",
"@	c #9E4A0A",
"#	c #5F2A0A",
"$	c #D3A30E",
"%	c #CE8A0E",
"&	c #4A1E0A",
"*	c #BE7A0E",
"=	c #DFBE0A",
"-	c #86520A",
";	c #2E1206",
">	c #9F5E0A",
",	c #7C380A",
"'	c #B8620E",
")	c #EED60A",
"!	c #8D4B0D",
"............;;;;.......",
".......;####,,-#&&.....",
".......#,,,'+++@,,&....",
"......#,@%)))))++%'#...",
".....&,')))++)))))',#..",
"....;,')))%@,@>*))%@#..",
"....#@$))$@@@@,@%))%@..",
"...&@%)++''@@@>@>+)+>&.",
"...#@$)$*''@''*''*++%-;",
"...,*+)$'>'$+++$*'%)$,&",
"..&@%))$'>$)))))$**+$@&",
"..,@$))%%++)+$$=)+%++>#",
"..@'+)+%+))%-'>%=)=)+>#",
".&''+)$%))$>->>'%)))+>&",
".&'%))$$)+*''-->@%+)+>#",
".#'%))%$)+->*>>-@'+)$>!",
".#'%))%$)+***-'''*))+>#",
".#'%)+%%+)$*>->'*+))=>#",
".&'*))%*$))$>@>%+)=)$>,",
".;@'+)$%'$))$>%=)+%=$@!",
".;@@$))%@@$)+++=$>>>>>!",
"..,-%))%,#,$$$$%-,!!!!,",
"..#,*))%@#,,---,,##,,##",
"..&,@)))*@,&;;#&#->@,#;",
"..;,,%))$'@,&&&#>$+@,#;",
"...#,@)))%'@,#,>$))%@&.",
"...&,,%)))$*>->$))+',#;",
"...;##,%)))++++))$'@##&",
"....&&#,'$++)+++%>@,##&",
"....;&##,'>'*>>>@@@,##;",
".....;&##,@@@,@@@@,##&.",
".......&;;#,,#######&;.",
".......;;.;&&####&&;...",
".............&#&&;.....",
"..............;;.......",
".......................",
".......................",
".......................",
"......................."};
