/* XPM */
static const char * backslash_xpm[] = {
"23 39 17 1",
" 	c None",
".	c #000000",
"+	c #180800",
"@	c #582008",
"#	c #401400",
"$	c #401C08",
"%	c #301008",
"&	c #682810",
"*	c #803008",
"=	c #B05010",
"-	c #C86410",
";	c #904018",
">	c #E8B010",
",	c #F0DC10",
"'	c #D87C10",
")	c #983808",
"!	c #F8F410",
".......................",
".......................",
".......................",
"...+@#$##++............",
".+%@@$$$$##++..........",
"++@@&&*&@@@#+..........",
".+@@&*=--=&@$%+........",
"..+@;->,,')*@@+........",
"..+&&=',!,'=)&@%+......",
".+#@;-',!,>=)*&$%......",
".++#;=-',!!'=)*&@%.....",
".++$&;-',!!>-;**@%.....",
"..+$**)-',!!>=)*&&#....",
"..+$**)=-,!!>-=*&&#....",
"...+$*;*;-,!!>-)=*@#...",
"...+#&=**=,!!>'=)*$%...",
"....+%@**&;>,,'=)*@%+..",
"...++%$*)*=,!!>-;*@%+..",
"...++%%#&*&;>,,');)&%+.",
"....++%$@)*=,!!>-=*&%+.",
".....+%#$@)*=,!!=)=*@@.",
"....+%%#$***),!!>-=&#%+",
".....+%%#&))*=>!,'=)@@.",
".......+%#;)=->!!>==@#%",
"........+%@@*;-,!>-=)+.",
".......+%$*)=--'!>-)&#+",
"...........+$@@**))*+..",
".............+&&@+.....",
".......................",
".......................",
".......................",
".......................",
".......................",
".......................",
".......................",
".......................",
".......................",
".......................",
"......................."};
