/* XPM */
static const char * carat_xpm[] = {
"23 39 17 1",
" 	c None",
".	c #020202",
"+	c #CEB212",
"@	c #7A460E",
"#	c #6A360E",
"$	c #3E1E0A",
"%	c #C2A612",
"&	c #2E1202",
"*	c #9E720E",
"=	c #1E0E02",
"-	c #86560E",
";	c #160A02",
">	c #DAC212",
",	c #4E260A",
"'	c #AA860E",
")	c #8E620E",
"!	c #6E4E0A",
"==&&&&&&&&&&&&=........",
"===&&&&&&$,,,&=........",
"===&&&$,,,###,=........",
"=====&$,##--@#,&;......",
"=====&$##@%+%-##$......",
"======$,@*>>>'@#,=.....",
"..====$@*+>>>+-##$;....",
".....&,-%>>+>>*###&....",
"....=,@'>>+*>>+@##$;...",
"....&$@%>>*-+>+@##$....",
"....=&!%+'#,)%%)$&=;...",
"..;=,@%>>*##-%>>)#,&;..",
".;$#,->>>)###%>>'##,;..",
".=,#@'>>%@,##)+>%-#,...",
"=$##-%>>*#####*>>'#&=..",
"&$##*>>+@#,,##-%>+-,$;.",
";,#@%>>'##$&,#@%>+-,#&.",
";,##*%%@##$;&,,*+%@##&.",
"=,###@@##,&.;=,@)-##,;.",
";$#######,&...=#@###,..",
".=,###,$,,&....&,#,,&..",
"..;$,$;.==;.....=$$=...",
"....;............;;....",
".......................",
".......................",
".......................",
".......................",
".......................",
".......................",
".......................",
".......................",
".......................",
".......................",
".......................",
".......................",
".......................",
".......................",
".......................",
"......................."};
