/* XPM */
static const char *colon_xpm[] = {
/* width height num_colors chars_per_pixel */
"    23    39       16            1",
/* colors */
". c #080400",
"# c #d87c10",
"a c #702808",
"b c #401408",
"c c #a85010",
"d c #502010",
"e c #803810",
"f c #802c08",
"g c #581c00",
"h c #f0dc10",
"i c #e8b010",
"j c #c86410",
"k c #200c00",
"l c #f8f410",
"m c #903810",
"n c #602410",
/* pixels */
".......................",
".......................",
"......kkkbbbbbbk.......",
".....kkbbbbdbggbbk.....",
"....kkknaggnnngbbbk....",
"...kkbbagcmfcdmgnbkk...",
"..kkbammjcic#nndebkk...",
"..kkknamjilhiccnnbkk...",
"..kkbgfmjllhijjmagkk...",
"..kkbnfcjilhiccmagkkk..",
"..kkbacmjllhijjffnk.k..",
"..kkbdacfciicnnamdk....",
"..kkbgnmamffnffdfdk....",
"..kkkdaaannnnandeb.....",
"..kkkbnafannnnndab.....",
"..kkkbnaannnnnndnb.....",
"..kkkbnafnnnnnfndb.....",
"..kkkbffncmfcnmdabk....",
"..kkbbaajcic#nnnab.....",
"..kbdeffjilhiccmad.....",
"..kkkgamjllhijjcab.....",
"..kkbgacjilhicceak.....",
"...kbbmcjllhijjmnk.....",
"..k.kggnfciicddfnk.....",
"....kaaaamffnaagbk.....",
".....bggafaangnbk......",
".....kkbgagngdbbk......",
"......kkbaggbkkkk......",
".......kkgbbkkkk.......",
".......................",
".......................",
".......................",
".......................",
".......................",
".......................",
".......................",
".......................",
".......................",
"......................."};

