/* XPM */
static const char * comma_xpm[] = {
"23 39 17 1",
" 	c None",
".	c #0A0602",
"+	c #EED712",
"@	c #AC5A12",
"#	c #903E11",
"$	c #692E0B",
"%	c #51210A",
"&	c #3A1706",
"*	c #DFA512",
"=	c #2A1206",
"-	c #1B0A02",
";	c #C58811",
">	c #E6C212",
",	c #A05211",
"'	c #F8F212",
")	c #83390B",
"!	c #BB7112",
".......................",
".......................",
"..............-........",
".......................",
".......................",
".......................",
"...----................",
".......................",
"...................-...",
"...................--..",
"..-.................-..",
".......................",
"..-....................",
".......................",
"..-.................-..",
".......................",
"....................-..",
".......................",
".......................",
".......................",
"......--==-.........-..",
"...---=&%&==-.......-..",
"..-==&&%$%%%&=.........",
"..-&=%%,)#,$$&-........",
"..-&=&$,,>@!$%-........",
"..==&%);+'+;)%&........",
"..-=%$,*+''*#%=...-....",
"...=&$#*>''*@%=...=-...",
"..-=&%,@!>'*@$-........",
"..-==-&#,*'@#%=...-....",
"...-=&$#;+!#)&-.....-..",
".....=$#,;#)&..........",
".....-%#)$$%-..........",
".......................",
".......................",
".......................",
".......................",
".......................",
"......................."};

