/* XPM */
static const char *d1[] = {
/* width height num_colors chars_per_pixel */
"    23    39       16            1",
/* colors */
". c #000000",
"# c #d87c10",
"a c #904018",
"b c #582008",
"c c #803008",
"d c #301008",
"e c #682810",
"f c #401c08",
"g c #401400",
"h c #f0dc10",
"i c #c86410",
"j c #e8b010",
"k c #b05010",
"l c #f8f410",
"m c #983808",
"n c #180800",
/* pixels */
".....nnggffffbbbdn..n..",
".....ngbbbeceebebfn.n..",
"....ndfbekiikcebbbn.n..",
"....nbbcm#hhjiabbbdnnn.",
"...ndbemk#hlh#keffdnnn.",
"...dfecmkjhlh#iaebgnnn.",
"...dbecmk#llh#ikabgnnn.",
"...dbccaijllh#iaeefnn..",
"...geecmkjllh#imccfn...",
"...geeckijllhikmccfn...",
"...gbckmijllhiacacfn...",
"...dfcmk#jllhkcckegn...",
"...ndbcmk#hhjaeccbdnn..",
"...ndbcaijllhkcmcfdnn..",
"...ndemam#hhjaecegddn..",
"...ndeckijllhkcmbfddn..",
"...ngbckijllhkcmbfddn..",
"...ndgekijllhmcccfgdnn.",
"...ndgbmk#hljkcmmegdnn.",
"...ndgbkkjlljikmmagdnn.",
"...ndgemijll#iikmmfdn..",
"...ngbckijlhjkkmmcfdnn.",
"...dbbmkijlhjiikmcfn...",
"...ngbckijhjh#immcfn.n.",
"....ngbcijjjh#ikcefnnn.",
"....ndbcijjhh#iacbfnnn.",
".....nemkijlhiacbbdnnn.",
".....neckihlhabfbfn.nn.",
".....nfcaihhjcfbbdn.nn.",
"......nfecmmccbbfn..n..",
"......ndfbbebecbdn.....",
".......................",
".......................",
".......................",
".......................",
".......................",
".......................",
".......................",
"......................."};
