/* XPM */
static const char *d2[] = {
/* width height num_colors chars_per_pixel */
"    23    39       16            1",
/* colors */
". c #100800",
"# c #d07c18",
"a c #803418",
"b c #501c08",
"c c #782c10",
"d c #301000",
"e c #a84c20",
"f c #602810",
"g c #983c10",
"h c #e8c010",
"i c #e0a018",
"j c #f0e008",
"k c #c06018",
"l c #401808",
"m c #a84818",
"n c #884418",
/* pixels */
"......ddblldlblld......",
".....dbamcbfcmmcbd.....",
"..dlfgmk##kkgk##kcbd...",
".dcak#ijjhhhihjjj#fcl..",
"lbcekhjhime#k#hjhhegcd.",
"dcakijh#gaamekkii#ikcb.",
"dcgijh#mcfbafgkkk#jigc.",
"lamijinfbblbbcmemijhka.",
"bckihkclbllllfgmgijjka.",
"dbamkabllllllbaaeijjka.",
"dlffffllldldlbfceijjkc.",
".dlbllddddddbbfaehjjmc.",
"...d.d....dlffca#jjhmf.",
".........dlfgcaehjjigf.",
"........dlcaacg#jjhkal.",
"......dlfaaeeg#jih#mbd.",
".....dbamk#hh#jiikecd..",
"....dbgmihjjh##mkgcl...",
"...lamkiijjh#mggmcd....",
"..dfm#hjjjhimgggcl.....",
"..dgkhjjh#kmcgabdd.....",
"..bmijjikgafbbdd.......",
".dc#jjh#eabldd.........",
"dlghjj#knbld...........",
"lbmhjikkafdd....d......",
"bfm#jikkmfdldlllddddd..",
"baii##kkkccgcccccccbld.",
"fehjh##iikiikgmkkkmgfb.",
"fmhjjjhhi#iiiihjjjj#ac.",
"fg#hjjjjkcfgijjjjjjigl.",
"cfaekkkmfbbcg#iiii#mfb.",
".......................",
".......................",
".......................",
".......................",
".......................",
".......................",
".......................",
"......................."};
