/* XPM */
static const char *d3[] = {
/* width height num_colors chars_per_pixel */
"    23    39       16            1",
/* colors */
". c #180800",
"# c #b87018",
"a c #703c18",
"b c #582008",
"c c #782c10",
"d c #381408",
"e c #b05818",
"f c #602c10",
"g c #e8a818",
"h c #d89418",
"i c #f0d008",
"j c #984020",
"k c #d88018",
"l c #d8a018",
"m c #984c10",
"n c #b88410",
/* pixels */
"ddddddddddddbbdbdddddd.",
"ddfaaaaafddbbaaaaaafdd.",
"bcknn##emmmmcennneelmc.",
"cekiiiiiiiiiggiiighi#m.",
"ccjekkhkee#g#ekhiiiimf.",
"bbfccjeccfjmjeekiii#fd.",
"..dddbbdddbffm#iiggadb.",
".....d...ddffmiiig#fdd.",
".........ddbjhiihhjddd.",
".........ddj#iii##addd.",
"........ddfegiigejfddd.",
"........dbjhiiieeabddd.",
"........bfckiigeeabddd.",
".......dbfjgihkhhmcfdd.",
".......dbbfjehhiigejbd.",
".......dddbcjjkiiihefb.",
"..........dbacehiiikcb.",
"...........dbbjehiigcb.",
"............ddfeehgiec.",
"............dbbaekkiec.",
".............bbcehhikc.",
"d..ddddd....dbbcehkikc.",
"dddbbbbddddddbfaehgikc.",
"ddbcccfbddddbbcjeggiec.",
"ddchhecccbbfcjjekgiief.",
"bbckigjccfcjcjjkghikjb.",
"bfjeiigeccjejjkgkigebd.",
"dbckkiiihehgkggkiiefd..",
"ddbjkliiihiigggigefd...",
"dddbcm#gecjehiihejd....",
"ddddbbbcbbbjjejcfbd....",
".......................",
".......................",
".......................",
".......................",
".......................",
".......................",
".......................",
"......................."};
