/* XPM */
static const char *d4[] = {
/* width height num_colors chars_per_pixel */
"    23    39       16            1",
/* colors */
". c #000000",
"# c #d08c20",
"a c #884020",
"b c #502410",
"c c #783018",
"d c #381808",
"e c #b86430",
"f c #a04820",
"g c #603018",
"h c #f0cc10",
"i c #f0f008",
"j c #e0a010",
"k c #280c08",
"l c #c87018",
"m c #b05420",
"n c #d89820",
/* pixels */
"............kmmlk......",
"...........bmljlbk.....",
".........kbejjjlck.....",
"........kdahiiinfk.....",
".......kdgniiiihmd.....",
"......kdbfhiiiinak.....",
".....kkdcniiiiinabk....",
"....kkdgeiiiiiijedd....",
".....dgfhiihiiijfdk....",
".....gcliijjiiihfbkk...",
"....kcmhiilnhiijfgkk...",
"....bajiijllniijfcdk...",
"...kgalhjffalhijfcdk...",
"...dafljnagc#ihlagdk...",
"..kbflihlcbc#iilabdk...",
".dbfjiijmbdg#ihlagdk...",
".cajiihfcddg#ijjeabkk..",
".fmhii#abddg#hihecbbkkk",
".mjiijeccbba#hihecgbddd",
".miiineemacmnjiheaaagdb",
"kjiiihhhhjjhhhiihhhllgb",
"kjiiiiiiiiiihiiiiiijjfg",
"bljiiiihiihhhiiihhhllab",
"kcflfeffmmflniinefefcgb",
"gadbbbbbccafniinaggbbkk",
"....kkbdddbaniinabkdk..",
".......kkdbfniinadk....",
"..........dcniilgk.....",
"..........bclhjlgk.....",
"..........dcmjijcdk....",
"...........kdlldk......",
".......................",
".......................",
".......................",
".......................",
".......................",
".......................",
".......................",
"......................."};
