/* XPM */
static const char *d5[] = {
/* width height num_colors chars_per_pixel */
"    23    39       16            1",
/* colors */
". c #180800",
"# c #d08420",
"a c #884020",
"b c #502010",
"c c #803418",
"d c #301408",
"e c #b86030",
"f c #a04820",
"g c #602c10",
"h c #e8bc18",
"i c #f0e400",
"j c #e0a418",
"k c #b87420",
"l c #985428",
"m c #f0d008",
"n c #b05820",
/* pixels */
"bbcfeee#nnnn#efffcbd...",
"da#miiiiimjhiiiim#cd...",
"bnmiiiiiiiiiiiiiimfd...",
"bniiimmmmhjhmmmmj#cd...",
"beiimhklaalelafkkab....",
"bfiiikabddggbddbgbd....",
"bkiimkbd..ddd...d......",
"bniihlddd..d...........",
"bniihgbdd.ddd..........",
"bniijbbdddddd..........",
"bniihaclcaffcbddd......",
"gniimnkjhmmhjkaagd.....",
"bniihnhmmimmmmm#ab.....",
"bniijjiiiiiiiimmjad....",
"bnmhmimhh##hhiimijgd...",
"gfjmimj#ffeee#himi#g...",
"ddak#nfccggccfehimifd..",
"..dbggcbdd.ddcn#hiijbd.",
"....ddd......dce#mmmg..",
".............dgfehimg..",
"dddd.........dbaehmig..",
"dbggd........dgfehihg..",
"gfnaad.......dgaemmhbd.",
"f#m##gbdd..ddbca#mihdd.",
"njimjncgbdbbbaaehmikdd.",
"cjmimjfcccafaff#mimadd.",
"bfmmim#aaafff#jmim#g.d.",
"dgnmmiimjj#jhmmim#cb.d.",
"ddc#hmmmmmmmiiimkgd....",
"dddcf#mhncnjmmjngbd....",
"..ddbbafcccn#acdd......",
".......................",
".......................",
".......................",
".......................",
".......................",
".......................",
".......................",
"......................."};
