/* XPM */
static const char *d6[] = {
/* width height num_colors chars_per_pixel */
"    23    39       16            1",
/* colors */
". c #120800",
"+ c #310F07",
"@ c #431C06",
"# c #582511",
"$ c #673111",
"% c #873515",
"& c #644905",
"* c #983C18",
"= c #88450B",
"- c #A94E19",
"; c #AA6F0E",
"> c #C96D1F",
", c #D78A15",
"' c #E1AC09",
") c #E9C805",
"! c #EFF000",
/* pixels */
".........+$->>-#@+.....",
"......+++@%,!!,$#+.....",
"....++@#$-,!!!'%#+.....",
"....+++@%-'!!!,=@......",
"....++@$-,!!!'-@+......",
"...++@#=>)!!);$@+......",
"...++#%-,!!);&#+.......",
"..+++$=>)!!;&&@........",
"++++#%-'!!)%#@+........",
"++++#->!!!,%&&@++......",
"+++@=>)!!!>-;;-%$@@....",
"++@$-'!!!!!!))),-=#+...",
"@@#=,!!!!!!!!!!!!,=$@..",
"##%-)!!!!!!)!!!!!!,-$+.",
"@*->!!!!)',>>,'!!!!)=@.",
"#*>)!!!,,>-%---,'!!!,%.",
"#*,!!!'>-$#@#$%->)!!)-+",
"#>)!!)>-$+++++@$->!!!,@",
"%,!!!>%#@++++++@%-,!!'#",
"*'!!!>%@+....++@$=>!!'#",
"*)!!'>%@+.++.++@#%>!!)#",
"-)!!)>=#+++++++@#=,!!)#",
"*)!!)-=@+++.+++@#%,!!)#",
"*)!!)-&#@++.++@@#='!!,+",
"*'!!!';=#@@++@#%%>!!!-+",
"%>!!!!,>=$##$%%=>!!!'#.",
"#*,'!!!)>=%=-=-,!!!'%+.",
"#%*-'!!!!),',')!!!)=+..",
"+##%-'!!!!!!!!!!!'=@...",
".+@$%=>'!!!!!!!)>%@+...",
"..+@@##%--->>>>%@+++...",
".......................",
".......................",
".......................",
".......................",
".......................",
".......................",
".......................",
"......................."};
