/* XPM */
static const char *d7[] = {
/* width height num_colors chars_per_pixel */
"    23    39       16            1",
/* colors */
". c #180800",
"# c #b88020",
"a c #804820",
"b c #582410",
"c c #301008",
"d c #803418",
"e c #b86428",
"f c #e8d410",
"g c #401c08",
"h c #e0a820",
"i c #f0f008",
"j c #a04818",
"k c #683018",
"l c #d08820",
"m c #a85828",
"n c #b07818",
/* pixels */
"djjjmmemennnleeeemjdgc.",
"dlfifififfffiiiiiii#bg.",
"eiiiiiiiifffiiiiiiifkb.",
"jhfffiiiiiiiiiiiiiifkk.",
"bdjelhllmjlfneehfiifbb.",
"ccbkdajdkdaakdjeiii#bg.",
"...c.cgggggggkjeiiimgg.",
"........ccccgkehiifjgc.",
"c..........cgdefiihdcc.",
"c..........cgaliiildc..",
"c..........cbmhiifeb...",
"...........ckliiiljg...",
"..........cgkliifek....",
".........ccgahiihjb....",
"..........gkmiifeagc...",
"....ccc..cgb#iifekg....",
"....cgc.ccgkhiifmbc....",
"....ggcccggafiihdcc....",
"...cccccgbkniiimbc.....",
"..ccccccggafiihdc......",
"..cccccggbniiimgc......",
"..ccccggbafiifag.......",
"c..ccccgbmiii#b........",
"c.c.cccgdhiifmg........",
".....cgbjfiihmbcc......",
"...ccgkkeiii#dbgc......",
"...ccgdjhiiimbgc.......",
"....ckdefiiimkbc.......",
".....gdefifhjdbcc......",
"......bjjjjddbcc.......",
"......cgbddddgc........",
".......................",
".......................",
".......................",
".......................",
".......................",
".......................",
".......................",
"......................."};
