/* XPM */
static const char *d8[] = {
/* width height num_colors chars_per_pixel */
"    23    39       16            1",
/* colors */
". c #180800",
"# c #c87810",
"a c #904020",
"b c #582410",
"c c #803418",
"d c #301408",
"e c #b06418",
"f c #683018",
"g c #482010",
"h c #e8bc08",
"i c #e09810",
"j c #f0e408",
"k c #a04418",
"l c #c07020",
"m c #b05420",
"n c #884c18",
/* pixels */
"d....dddbbgbfbbgd......",
"d..ddgfamfbfckcbdd.....",
"dddbk##ii#mmcmi#agd....",
"ddda#jjjjjhhihjjiagd...",
"ddb#jjjhlam#lijjj#fg...",
"ddfijjhmcgbnca#jjikbd..",
"dgahjj#abdddgbaiji#fg..",
"ddehjimcd..d.dflhhhcgd.",
"dgehj#mcd....dfm#jhkgd.",
".dehj#kmg.....fmijhcgd.",
"ddkhjimmkbdddbamhjicbd.",
"ggchjhilmmaffamijj#cd..",
"gdbeh####mleklhhjimb...",
"gdgammijjhhjjhihhlcd...",
"gggcmijjjjjjjjhi#lcd...",
"gdbm#jjjjjjjjhhjhmad...",
"ggkihjjiilii##hjj#ag...",
"gc#hjjieacfnakijjhlfd..",
"amihjlabgggggbclhjiadd.",
"k#hjiabddd..dgbfejilgd.",
"k#hjlkbd.....dggnhiicd.",
"kmhh#mfg......gbfiiicd.",
"kijjimbd......dgchhhcd.",
"k#jjiabdd.....dfahhhbd.",
"ccijhmcbd....dbklhhlgd.",
"bcmhhikcbd.dgfcliihfd..",
"gbm#hhicfgbbfcliij#gd..",
"ddfiihhh#kll##iijiag...",
"d.daihhhimii##hjimbd...",
"..dgc#hikffkmih#kcd....",
"...ddbckfgbfckcbgd.....",
".......................",
".......................",
".......................",
".......................",
".......................",
".......................",
".......................",
"......................."};
