/* XPM */
static const char *d9[] = {
/* width height num_colors chars_per_pixel */
"    23    39       16            1",
/* colors */
"  c #110800",
". c #321000",
"+ c #41170A",
"@ c #4F1E08",
"# c #622811",
"$ c #772E10",
"% c #883405",
"& c #7F3611",
"* c #9F431A",
"= c #C05C1A",
"- c #C86D13",
"; c #D37B16",
"> c #D88413",
", c #DE9E10",
"' c #ECC705",
") c #F0E607",
/* pixels */
"   ...+@%%#++#$$#@.    ",
"   .+@$%--##$***$$+.   ",
"   #*=--->==**=->*%+.  ",
"   *>')))'',','))'=@@. ",
"  @='))),=**>-,')),*$@.",
" +=,))',*%%%***-''>>*@+",
" *;))'>=*$$$****->,)=$+",
"#=')',=*%@@++#%**='),*@",
"#-)),-**#+...+@%**')'*$",
"&,))>=*%+.. ...@%*')'*#",
"$,)),=*$@.. ...+$*')'*#",
"#,)),=*%@..  ..+*=')'*#",
"$-)),*%$@......@*>)),*@",
"&=,),***$@+.+@#$=,))>$+",
"@=='>-==*$###$%*=')'=#+",
".#=,'',==******='''>*@+",
"  *;'')',-===--'))>=*@@",
"  @*='))))''''')))-*%++",
"  .#%=,))))))'')),-*#..",
"   +#*=-,''))>')'-=#...",
"   .+#%**===-,))>=*+.  ",
"   ..+@#$***=,',=*#..  ",
"     ..+@$*=,)'-*$@.   ",
"      ..+$*-')>*#@+    ",
"      ..+*=>)'=$@@.    ",
"       .#*>,)>%@+.     ",
"       +$-,''=$+.      ",
"      +#*'')'%#+.      ",
"      +$*,''-%#+.      ",
"     ..+$#&&%@+.       ",
"     .++++##@+         ",
"         ++.+.         ",
"                       ",
"                       ",
"                       ",
"                       ",
"                       ",
"                       ",
"                       "};
