/* XPM */
static const char * dash_xpm[] = {
"23 39 30 1",
" 	c None",
".	c #000000",
"+	c #442200",
"@	c #552211",
"#	c #331100",
"$	c #552200",
"%	c #663311",
"&	c #773311",
"*	c #883311",
"=	c #884411",
"-	c #994411",
";	c #995511",
">	c #995522",
",	c #CC9911",
"'	c #AA7711",
")	c #BB9911",
"!	c #CCAA11",
"~	c #EEDD11",
"{	c #CCBB11",
"]	c #DDCC11",
"^	c #EEEE11",
"/	c #DDBB11",
"(	c #BB8811",
"_	c #EECC11",
":	c #883300",
"<	c #995500",
"[	c #996611",
"}	c #AA6611",
"|	c #773300",
"1	c #994422",
".......................",
".......................",
".......................",
".......................",
".......................",
".......................",
".......................",
".......................",
".......................",
".......................",
".......................",
".......+@#.$@#@+.......",
".....+$%&&&**&&%$+.....",
"...#$=--=;;;>;=--=$#...",
"..$%&;,'')!!!)'',;&%$..",
"..$@&!~{,]~^^],{~!&@$..",
"..#%&'/(!~_^^~!(/'&%#..",
"...%%:<[[}'}'}[[<:%%...",
"...+$|===--1--===|$+...",
".....#+@@%%*-%@@+#.....",
"........#..#%.#........",
".......................",
".......................",
".......................",
".......................",
".......................",
".......................",
".......................",
".......................",
".......................",
".......................",
".......................",
".......................",
".......................",
".......................",
".......................",
".......................",
".......................",
"......................."};

