/* XPM */
static const char * dollar_xpm[] = {
"23 39 17 1",
" 	c None",
".	c #180706",
"+	c #EDD819",
"@	c #DEB816",
"#	c #9B4E16",
"$	c #76320E",
"%	c #612C0F",
"&	c #D5A817",
"*	c #4B2511",
"=	c #C88C19",
"-	c #3B1707",
";	c #AE5A1A",
">	c #8A4414",
",	c #F6ED16",
"'	c #EACE1A",
")	c #271606",
"!	c #BE701C",
"......---*%$$%***-.....",
"....--*%>==&==!#*--....",
"...)*;!!@,,+++'@!>*-...",
"..))>!,,,,,,,+,,,=>*-..",
"..)*!,,,@=@,'&@,,,!%*..",
".)-$=,,@!!',+!;=,,=>*).",
".-*>+,,=;;@,@;>;=@@;$-.",
".--=+,@!;>@,@>$>>>;>$*.",
".-*!,,=!;;@,@>$*%%$$%..",
".)*;+,@;!!@'!$$*)--*...",
".)*$',+!!=@@!>$-.......",
"..*$@,+@==''=>$-.......",
".)*%>@''@@',@>$*.))....",
"..-*%>!',,,,@>>%).)....",
"..))-*%!@,,,+;>**-.))..",
"....))**>=+,,=;>%*-*)..",
"...)))-*>;@,++@=#%*%*).",
"....))))$;',''++'=%%*-.",
".....)..%>@,'=@',,!=%--",
".......*$>@,@;;!@,,@!*-",
"..)....-$;@+@;>>#&,@@>-",
".)%--)..%>@+@>>>>;+,@>-",
".)%%$%-->#@'@>$%$#','>-",
")$$>>>>>#;',@>$$>#@,@>%",
"-$>>#>>>#!',';#>#!+,!>%",
"*$#='&!#!!',+!##!@,'>>-",
")%#!','@!!@,+!;=@+,!>$-",
".-$#@,,'''+,,&@+,,=>>*.",
".-$$#@,,,,,,,'@,,&#>$).",
"..*%%>!'++,,,'''!#>$-..",
"..)%$%%>!=@+'!!>%$%)...",
"...)--%$$>@+@$$%%*-....",
".....)*%$>@+=>$%*-.....",
".......-$;@+=$%*)......",
"........%$>!>$$-.......",
".......)$$$$$$*........",
"........--*-**)........",
".......................",
"........).))).........."};
