/* XPM */
static const char * dquote_xpm[] = {
"23 39 17 1",
" 	c None",
".	c #030202",
"+	c #FCF524",
"@	c #BE641B",
"#	c #994716",
"$	c #6C310F",
"%	c #53240D",
"&	c #F3CA22",
"*	c #2A190A",
"=	c #EBB51E",
"-	c #170E06",
";	c #E1941D",
">	c #AF6917",
",	c #411E0C",
"'	c #D87B1C",
")	c #833B11",
"!	c #AE5918",
"--**%$$,,***,,%$%**----",
"**,,$))$$%%,%%$$$%%,*--",
",*%$!>@!))$%$$@##!$$,--",
"%,,$>;=!@))%%$'@=!'$%--",
",%)#=&+='!#)#!=++='#$,*",
"%$#!=+++'@!##@&+++'!$,-",
"%%)#&++&>@!)#!&+++=@),*",
",$##=+++>'!#@;++++='#%,",
",$)#=+++'@###@&+++;!$,-",
",%)!=++&>@#)#!=++&'@$,-",
",$#!&++&!!#)#'=+++'!)*-",
"*%))>+&!#$%$%$@==!)%**-",
"**$))>##$$%%%$$###%,**-",
"**,%$$$$,,%%,,$$$%***--",
"----*************------",
"----*************------",
"----*************------",
"----*************------",
"----*************------",
"....-------------......",
"....-------------......",
"....-------------......",
".......................",
".......................",
".......................",
".......................",
".......................",
".......................",
".......................",
".......................",
".......................",
".......................",
".......................",
".......................",
".......................",
".......................",
".......................",
".......................",
"......................."};
