/* XPM */
static const char * equal_xpm[] = {
"23 39 17 1",
" 	c None",
".	c #030202",
"+	c #F1E616",
"@	c #AD611B",
"#	c #7E3A11",
"$	c #653111",
"%	c #5A280C",
"&	c #D9BD15",
"*	c #4A240C",
"=	c #C89F14",
"-	c #361807",
";	c #9D6211",
">	c #B68815",
",	c #271408",
"'	c #93520F",
")	c #AE7814",
"!	c #1A0E06",
".......................",
".......................",
".......................",
".......................",
".......................",
".......................",
".......................",
"....!,,!....!--,!......",
"..!,-%*%%---%$%$%*--!..",
".!-%$$$#####$$$$$$$%,..",
".-$$#'';;;;;''''''$$*..",
"!$$$'>&&&&&&&=&&&='$$%.",
",$$$=&++++++++++++&#%%.",
"!*$$)+&+++++++++++)#$,.",
".!$$#;))>))))>>));#$$..",
"!-$%$@'@@@@@@@'@@@#%*..",
"!*$$$@@@)@@@@@@@)@$....",
",*$$#';@)'''@';@);'%,..",
"!$$$'=&&&===&=&&&=;#$%.",
"!%%$=++++++++&++++&#%%.",
",%$$)+++++++++++++>#$*.",
",%$$#)=&=)));;)>>;#$$*.",
"!*$$$#''''''''''#$$$$*.",
"!*$%%*%%$$$$#'$%$$$$$-.",
".,--,!.,....,$.-,**%*,.",
"..................!!!..",
".......................",
".......................",
".......................",
".......................",
".......................",
".......................",
".......................",
".......................",
".......................",
".......................",
".......................",
".......................",
"......................."};
