/* XPM */
static const char * exclamation_xpm[] = {
"23 39 17 1",
" 	c None",
".	c #020202",
"+	c #F1E716",
"@	c #AB4F13",
"#	c #8C450F",
"$	c #75320C",
"%	c #622A0B",
"&	c #4D1F0A",
"*	c #C36D18",
"=	c #3B1809",
"-	c #D98917",
";	c #C79D11",
">	c #2A120A",
",	c #A06D0D",
"'	c #DCBE13",
")	c #0F0A06",
"!	c #985F0E",
"...........>=..........",
"........>=%#%=.........",
"........=$-;,$=........",
"))))))))%,'+'#%=)))))).",
")))))))&$,++'#&))))))).",
")))))))&$,++'#%&)))))).",
")))))))%$,++'#$%)))))).",
")))))))%$!'+'#$%)))))).",
")))))))&%,'+;#$&)))))).",
"))))))))%,++;$$&)))))).",
")))))))=$,'+'#$=)))))).",
")))))))=$,++'#$=)))))).",
"))))))))%,++'#$&)))))).",
"))))))))&!'+'!$))))))).",
"))))))))&!'+'#$&)))))).",
"))))))))%!'+;$$=)))))).",
"))))))))%,'+;#$=)))))).",
"))))))))%,++'#$%)))))).",
"))))))))%!++'#$%=))))).",
")))))))&$#;+;#$%)))))).",
")))))))=$#,;!$$&)))))).",
"))))))))&$$#$%&=)))))).",
")>))))))=$##$&=))))))).",
")>)))>>>>$##$%=))))))).",
")>))>>>=&#@@##$&)))))).",
"))))>=>&$-;;-@#$>))))).",
")>))>=>>$-'+;-@$>>)))).",
"))))>>=&@'+++-@$=>>))).",
"))))>>&%*'+++-@$>))))).",
")))))>=%@'++'-*$>>)))).",
"))))>>==&@''@$&>>))>)).",
"))))>>>=&&$$#&=>>))))).",
")))))>>>>&%%&>>>>))))).",
")))))))))))))))))))))).",
")))))))))))))))))))))).",
")))))))))))))))))))))).",
")))))))))))))))))))))).",
")))))))))))))))))))))).",
"))))))))))))))))))))))."};
