/* XPM */
static const char * hash_xpm[] = {
"23 39 17 1",
" 	c None",
".	c #040303",
"+	c #E9D221",
"@	c #D6A81F",
"#	c #A75416",
"$	c #813E11",
"%	c #612F0F",
"&	c #4E210C",
"*	c #A78016",
"=	c #40200B",
"-	c #F7ED24",
";	c #361506",
">	c #956615",
",	c #D07B22",
"'	c #2E130B",
")	c #E0BF1D",
"!	c #D49423",
"...........'=..........",
".......................",
".............''.'.'....",
"......'&%$%%&&;=%&'....",
"......&%$*>$$&%*$%'....",
"......%%>+@$%$*)*$;....",
".....=%$@-)$%$@-@$'....",
".....&%$+-!$$#@+)$;....",
".....%%>++*###)-),%%...",
".....%#,+)),#,+-+,$%...",
"....&$,!@+@,,,)-+!$$&..",
"..;&##!>++@,!,)+)@##$&;",
".&%#,)*+--+))++-++!)#$%",
".&&#)!+-----------+-@$&",
".;%$>!+-----------@)*$%",
"..%&#,!)--+@!@+--)*#$%%",
"..';##!)--+!,!---)>$$&&",
"....&%>*+-!>>>!++*$$%&.",
"..'&##!@--)@!@+--)##$&;",
".&%#,@)+---))++-++*@#$%",
".&&#)-------------)+@$&",
".;%$!++-----------))*$%",
"..%%#,@)--+@@@)+)+*,$%%",
"..&&##,@--+,,!+-)@>$$&&",
"....;&#,--),,!--)!$$;..",
"......&#)+@,#,+-),%%...",
"......&>+-@##>+-)$&%...",
"......&#+-)#$>+-)$&&...",
"......=>+-@$$#@+*$&=...",
"......&$*)*$$$!@#%=....",
"......=%$>$%$$>*$%;....",
"......=&%&&&&%%$%&'....",
"......=.'.''..='.......",
".......................",
".......................",
".......................",
".......................",
".......................",
"......................."};
