/* XPM */
static const char * invalid_xpm[] = {
"23 39 17 1",
" 	c None",
".	c #0A0502",
"+	c #F6EA12",
"@	c #AE4A16",
"#	c #722B0A",
"$	c #E6B212",
"%	c #451907",
"&	c #250F02",
"*	c #CE7612",
"=	c #953F12",
"-	c #551F09",
";	c #85320D",
">	c #351404",
",	c #180A02",
"'	c #B25A12",
")	c #EAC212",
"!	c #61250E",
",&&>>%%-%--%>&,,.......",
"&&&-#-!##!-%%>&,,......",
"&>>#-'@='#=-!%&&,......",
">#==''*'*!!-=%&&&,.,,,.",
"&!#='*))$''!!%&&&,,,,,,",
"%-;=')++$**=;#>>>>%>>&,",
"%!;''$++$''=;;%%--%-%>>",
"%#'='+++$**=;=;-#!!!->>",
">-#';'$$'##;!;#'=;'-=%%",
">>%#!=;##==;#=*'$'*!!%!",
"&>>>%--%-##=@@*)++)''!-",
"&&>>>%%%%!==@@*++++**=#",
"&>>>>%-%--;;@'*++++*'=#",
"&>%%--!!!!!#@@*+++)**;!",
"&>-!!'=;'#;!='='$$'!!!-",
">>-#*'$'*#=;@@#=;;!;#>>",
">!#;*$++)*''@=!--%%-%&>",
"&%#=*++++$*'@#-%>>>>>&&",
"%-#'*++++*'@@!%-%>>>>&&",
"%%='*+++$''@=;#!!-%%%>>",
"&--!;'$$'==@@=!'=;'!;>%",
"&####====;;#=;*'$'*!!%%",
".%--!;==#!!#;;*$++$'';%",
".&&%%---%%>-#=*+++)**'!",
"..&&>%>>>>%!;'*+++)''=#",
"...&&>>>&&>%='*)++)**=!",
"...,,,&&&&&%-#='*$'--#-",
"....,,,,,,&%!#;@=;!##%>",
"......,,,,&&>%#;##!-!>&",
"........,,,&&>%!--%%>&&",
".........,,,&&>%>>>&&&&",
".......................",
".......................",
".......................",
".......................",
".......................",
".......................",
".......................",
"......................."};

