/* XPM */
static const char * lcurly_xpm[] = {
"23 39 17 1",
" 	c None",
".	c #030202",
"+	c #DFB91A",
"@	c #C16716",
"#	c #A44F10",
"$	c #823F0E",
"%	c #69300B",
"&	c #4D2307",
"*	c #CD7E19",
"=	c #361806",
"-	c #A89D15",
";	c #251104",
">	c #E6C81A",
",	c #D39C19",
"'	c #AA8115",
")	c #F5E81E",
"!	c #1C0C02",
"..........;%%$$#$$&!...",
".........;$*,,,*@#$=...",
"........;$@,>)))+@$&!..",
"........;%@-)>+,*#$=...",
".......!%#>)'$###$&!...",
".......=$*)),$%$%&;....",
"......!&$,)+*#$==!.....",
"......;%#,),@#%!.......",
"......;%#,),#$&........",
"......!%#,),#$=........",
"......=%#,),#$=........",
".....;%%#,),@#=........",
"....=%#*#+),#%!........",
"...=%#@+--),$;.........",
"..!%@*>))-,*$!.........",
"..;$@+))+@$#%!.........",
"..;%#,))+@$$%;.........",
"..;$#@>))>,$$=.........",
"..!%$#@,>))*%&!........",
"...!&$#@*+),$%!........",
"....!&$@@,),@%!........",
".....!&#@,),#&!........",
"......;$#,),$%;........",
".......&$,)@@#&........",
"......;$#'-,#$&!.......",
"......;$##)+@#$&!......",
".......%$')),*#$&!.....",
".......=$#>)>*@##&!....",
"........&$*))>+,*$;....",
"........!&#,>)))+#=....",
".........&##@,,*@$=....",
"..........&$**@#$&!....",
"...........;$*@$=!.....",
"............!%&;.......",
".......................",
".......................",
".......................",
".......................",
"......................."};
