/* XPM */
static const char * less_xpm[] = {
"23 39 17 1",
" 	c None",
".	c #030202",
"+	c #DEC616",
"@	c #9A5D0F",
"#	c #733B0E",
"$	c #582C0A",
"%	c #4D2609",
"&	c #D2AE15",
"*	c #321606",
"=	c #C29A12",
"-	c #1F0E02",
";	c #905612",
">	c #A66212",
",	c #B57A12",
"'	c #EADA16",
")	c #834A0E",
"!	c #160A02",
".......................",
".......................",
".......................",
".......................",
".......................",
".......................",
"-!..........--**$$$*-..",
"!....!-....-*%$#####$!.",
"....!--..!-%$#@)>>###*.",
"...!----*$#)));,=,###$.",
"..-***$$$#>>>,+'+=)##*.",
".!*$$$$##;,&''''+,##$!.",
"-*$%###),&+'''+&,>##$..",
"*%###;,&''''+&,,;>##$-.",
"*$#;;,&''+&,,;@;##$$$-.",
"$#),&'''=,,@@)#$*****!.",
"$#),&''+,,,>))#$*!.....",
"$#;,=+''+=,,>;##$*!....",
"*$$);,&'''+&&,#))#*....",
"--*$#;,,+++''+,,,,;$...",
"...*####;>,+'''+=>>#*..",
"...!*$###;)@>&''',>)$-.",
".....-*####))@,&'=)##*.",
"......!**$%$$)));;##$*.",
"........!.-%$$######$-.",
"...........!*%$###$$*..",
".............!-***!....",
".......................",
"-......................",
"-......................",
"-......................",
"-......................",
"-......................",
"-......................",
"-......................",
"!......................",
".......................",
".......................",
"......................."};
