/* XPM */
static const char * lower_d_xpm[] = {
"23 39 17 1",
" 	c None",
".	c #070202",
"+	c #160A02",
"@	c #411C06",
"#	c #7A3A0A",
"$	c #9A460E",
"%	c #5C290A",
"&	c #1F0D02",
"*	c #2B1403",
"=	c #AF5B11",
"-	c #BE8D0C",
";	c #DEB10B",
">	c #EADA06",
",	c #866306",
"'	c #957C06",
")	c #E6C806",
"!	c #B67512",
"...............+@@@+...",
"..............+@#$%@&..",
"..............*#===#@..",
"..............@=-;-$@..",
"..............%=;>;#*..",
"..............@$;>;#@+.",
"..............@$;>;#@+.",
"..+++......+.&%#,-'%%*.",
"..+++......+&+@=)))$#*.",
"..+++.........@$;>;#@+.",
"..+&+......+.&%#;>;%%*.",
"..+&+.....&+&+@=)))$#*.",
"..+++..+&*%%%*@$;>;$%..",
"..++++&@@@####$=)>)$@..",
"..+&&&@%%=!,!===)>)$@..",
"..+&@@%=;;);))-!)>;$@+.",
"..**%%!;>>)->>>;)>;$@+.",
".+%##!;>>;-#-)>))>;$%&+",
"..@##;>>;!=#==;))>;$%%@",
".+@@#'',#%%@###,';-#%@*",
".+##!))!###%##$=)>;$#@+",
"..@#->;=%%%*%@%=)))$#@.",
"..@#->;=%@%*@@%=;);=%..",
"..*#->)!#@%@*@#!;))$*..",
"..@$!)>;!##*%#!;));$@..",
"..*%$;>>;!$%=!;)));=#+.",
"..+*#!;>>)-';)>>));=%+.",
"..++*#!;>>>;>>>;;);$@..",
"..+++*%=;))-));=;);$@+.",
"..++++&@%=!,!=%#=;!#@..",
"..++++++.+@@@+.@%##@&..",
".......................",
".......................",
".......................",
".......................",
".......................",
".......................",
".......................",
"......................."};
