/* XPM */
static const char * lower_a_xpm[] = {
"23 39 17 1",
" 	c None",
".	c #030202",
"+	c #E0BF09",
"@	c #BE6212",
"#	c #7A3E0E",
"$	c #62300A",
"%	c #49210A",
"&	c #AA6E12",
"*	c #381B06",
"=	c #BB840E",
"-	c #211003",
";	c #BE900C",
">	c #946F08",
",	c #974B11",
"'	c #EAD506",
")	c #1A0D03",
"!	c #CFA50C",
".......................",
".......................",
".......................",
".......................",
".......................",
".......................",
".......................",
".......................",
"...)).............)))..",
"...)).............)))..",
"...))..................",
".......................",
"....)....)))..).*%)....",
".......*$###%*-)*#$*...",
".....)%,,@@=&,$*$@,$)..",
"....-%#@!+++++=%&+=#%..",
"....$$#='''''';>!'!,%).",
"..)*,&+!++!=!;!+!'!,$..",
"..)#@!''>,,#$@!'+';#$).",
"..*#@+'!&$**#,&+''!,%..",
"..%,='+&@$))%#,=+'+,%..",
"..*,='!,#$*)*$,,+'+#%..",
"..*#='!,$$*)%$,@+'!#%..",
"..)#='+&,#%%##@&''=,%..",
"..)$&+'!&,#$,,&!''=,$..",
"..)%,!''!&,#@&!''';,$).",
"...)#,!''+!,!+''+'!,$).",
"...)##,!'''!'''!+'!,$).",
"...)%##,!++>++!@+'!,$).",
"...))*%##,&#&,$,,;,#$).",
"...))))*.)%%%).%###$)..",
".......................",
".......................",
".......................",
".......................",
".......................",
".......................",
".......................",
"......................."};
