/* XPM */
static const char * lower_h_xpm[] = {
"23 39 17 1",
" 	c None",
".	c #030202",
"+	c #DAB90A",
"@	c #9E4E12",
"#	c #7E440E",
"$	c #61350A",
"%	c #482509",
"&	c #A25810",
"*	c #301A06",
"=	c #A66E12",
"-	c #8F7209",
";	c #B28F0A",
">	c #1E1202",
",	c #E7D106",
"'	c #866606",
")	c #CCA50D",
"!	c #1A0E04",
"...>*%*!...............",
"..!%$#$*!..............",
"..*$&;#%!..............",
".!*#;--%!..............",
".!*#-,;%!..............",
".!%$),;%!..............",
".!%#)+;%!..............",
".!%#)+)$*..............",
".!*$-;-$*!.............",
".!*#)+;#%>.............",
".!%#),)$%!.............",
".!$@),)$>..............",
">!$&),)$%*>..%%..>.....",
".!%&)+;#$$$%%$$%*%*>...",
">.$&)+;@$#=#=@##%$*>...",
">.$&+,+=)++-++)@##$%>..",
">.$@),+),,,),,,)@##*...",
">.*$-;;;;;-$-;;;-$%>>..",
">.%$;,,,)==#@=),,)@%$>.",
"..$#',,)=@@$#@=),+#%%>.",
"..%@';,==##%%#@=+;##%*.",
"..%#));=@$%>%$$@-';#%*.",
"..%#+,;$@$%>%$$$#+;@%..",
"..%@+,+'$$%>>%$%;,;@%..",
"..%@),,;*%%>>%$#),;#%..",
">.$#;,+-*>>>*$$@)+;@*..",
"..%$-;-$%>...*%$--#$>..",
">.%@),;#$>>.>*$')+;#*..",
"..%#;+'$*>...>$#;+=#>..",
"..>$@=$$>....>%$@=@%...",
"...%$#%$>.....>*##$>...",
"....>%%>........>*>....",
".......................",
".......................",
".......................",
".......................",
".......................",
"..>>>..................",
"..>>>.................."};
