/* XPM */
static const char * lower_e_xpm[] = {
"23 39 17 1",
" 	c None",
".	c #060202",
"+	c #D6AE0A",
"@	c #B25A0B",
"#	c #92490B",
"$	c #7B3C09",
"%	c #5E2F08",
"&	c #431F06",
"*	c #BC720B",
"=	c #301503",
"-	c #B8830D",
";	c #DFC206",
">	c #1A0A02",
",	c #936A09",
"'	c #C99A09",
")	c #EAD206",
"!	c #935709",
".......................",
".......................",
".......................",
".......................",
".......................",
".......................",
".......................",
".......................",
".......................",
".......................",
".......................",
".......................",
"..........%%%&>>..>>>..",
"......>%%&$$$&&%&>>>>..",
"...>>>%@#!,,-!$@!&>>>..",
"...>&@#@-+;+;;+@@$&>>..",
"...=#@@-;))';))+*@#&&..",
"...%@*';);'$';));*!$%>.",
"..=#@';;+,!$!-+;);!$&..",
"..>%,'',$$$&%%$,';,&&>.",
"..&%+;;'+'-!--''))'$$>.",
"..&#;);)));+)))));,$&..",
"..%@';;+;+',++++'-$$&..",
"..=#*;;,@!$&$%%$$%%&>..",
"..=#*+;'@#%&$%&&&&>>>>.",
"..>$*';+*@!%$$!,!%$&>..",
"...&!-;;'*!!,-+;'@#&>..",
"...>=#'+;;+'+;;;-#%>>..",
"...>>&@*';;';+'-#%=>>..",
"...>>>&%@@-,**@#$%=>>..",
"...>>>>>&>&&%%&%&=>>>..",
"............>>.........",
".......................",
".......................",
".......................",
".......................",
".......................",
".......................",
"......................."};
