/* XPM */
static const char * lower_s_xpm[] = {
"23 39 17 1",
" 	c None",
".	c #070202",
"+	c #E5CC0E",
"@	c #C89A0F",
"#	c #9F5912",
"$	c #733B0C",
"%	c #5D2E0A",
"&	c #482307",
"*	c #391C06",
"=	c #B78411",
"-	c #281305",
";	c #A97210",
">	c #CFA90E",
",	c #1B0B03",
"'	c #EEDD0D",
")	c #884D0D",
"!	c #DDBD0D",
".......................",
".......................",
".......................",
".......................",
".......................",
".......................",
".......................",
".......................",
".......................",
"..........,............",
".....,-,-,%%%-,,..,,...",
"....,*%%%&$$$&&&,,,,...",
"...,&%%%$;=;;#%%&,,,...",
"...*%%%#!+'++!!;%&&,,..",
"...&$$=+''+>+''+=%%,,..",
"..,%$;+''!;)=!''+;$*,..",
"...&#!'+>##)#;!+'@$%,..",
"...$>''+;##%%%$;>;%%,..",
"...&;+''>##))&*%$%&&,..",
"..,-$@'''!;##$%%%%%*,..",
"...,%$>''''>=#$$*-,,...",
"...,&&$;!+''''!#)$*....",
"...,,-%$$=!''''+;#$-...",
"...,*&%$%%#;>+''!#$*...",
"..,*%%$$&%$)#;!''=$&...",
"...*%#)#$)%)##@''=%&...",
"..,%#;@>;#$#;;!''#%-...",
"..,$#@!'!@==>!++@)$*...",
"..,&#;!'''+++'+=$$$-...",
"..,-%$#@!'+++!;$%%*.,..",
"..,-%$%$)=;;;))$%*,.,..",
"..,,-**%$$)))))$*,,.,..",
"......,%$$$$$$$-.......",
".......,**&*-*-........",
".......................",
".......................",
".......................",
".......................",
"......................."};
