/* XPM */
static const char * lower_z_xpm[] = {
"23 39 17 1",
" 	c None",
".	c #030302",
"+	c #D1AD17",
"@	c #874412",
"#	c #713B0E",
"$	c #5E2B0C",
"%	c #49230A",
"&	c #C19516",
"*	c #361B07",
"=	c #AB7913",
"-	c #251306",
";	c #A46D12",
">	c #1B0E03",
",	c #E0C41A",
"'	c #935E12",
")	c #160A06",
"!	c #935612",
"..>--...........>->....",
"..>>...................",
".......................",
".......................",
"...>...................",
".......................",
".>.........>...........",
".>........)*)..........",
"..........)*>..........",
"...-*>..)>>**.>*-)...>.",
"..)*$*.)%$*$$>*$%->).-.",
"..)*$%%%##$$#$%$$%%*...",
"..)%#@!;!@@#@@@@!@#$>..",
"..*#@;++++&@=+&&&=@#-..",
"..*#@;+,,,+'&,,,,+!@*..",
"..>$#@!;;&=!;&&+,,;#-..",
"..)%##$#$$$$#;&++=#%)..",
"...-%%%%%$$$@&,+=@%)...",
"....)-)-*$@#',,&@$>....",
".......>*@!@=,+;$-.....",
".)-*****%$$%$#$%%***-).",
"......-$#;&';'!$.......",
".....)$@;++!!!@-.......",
".....*#=+,&##$-).......",
"....>$'+,+;##%*-*%*)...",
"..))%!&+&;!#$$$%$$%))..",
"..*$@&,&=''@'=;=!@%-)..",
"..-#'&,++++'&,,,+=@%)..",
"..>$@=+&&+&!=++++=@%...",
"..)*%#!@@@@##@!;!@$*...",
"..)**-%%%%$$$$%%%%*)...",
"...)).....-$*..........",
"..........)-)..........",
".......................",
".......................",
".......................",
".......................",
".......................",
"......................."};
