/* XPM */
static const char * lower_r_xpm[] = {
"23 39 17 1",
" 	c None",
".	c #0A0602",
"+	c #DEBA0A",
"@	c #A65612",
"#	c #82420A",
"$	c #62320A",
"%	c #4A2606",
"&	c #B27A0E",
"*	c #361A06",
"=	c #1A0A02",
"-	c #BE960A",
";	c #E6CA06",
">	c #8A6606",
",	c #D6AE0A",
"'	c #120A02",
")	c #EADA06",
"!	c #261202",
".......................",
".......................",
".......................",
".......................",
".......................",
".......................",
"....===..==............",
".......................",
".......................",
"............'!........'",
".....=.....'*$!........",
"....=*=!==.!=%*=....==.",
"....*%##%=!$%$$%*=..='.",
"...'%#@##%%##$#$%%*=='.",
"...'%#&-#$@--#-&$#%=!''",
"...=$$-+-,,)+>-+,@$*!.!",
"....%$,;;))+;&+)),&%*.!",
"..==$#;;)),-@%&,;;-@%=*",
"..==%#;)),&@#$@@&->@$!*",
"..%$%#-->#$%%!%$#$%%$*.",
"..*%##;);@#%%*$#####$*.",
"...%##;);@$*==**%$$$*'.",
"....$@+;-@$==*%!!%%*=.=",
"....$@+;-@$==.........=",
"....!#;+&@#*'.....!=..=",
"...!$#))-##$%='''....''",
"...!##,;&#$%*'.......'=",
"...=$#,)-$$%*'........=",
"...%##+)-##%=.'.'''.''=",
"..=$##&,>#$*'.''''''''!",
"...!!$$@#$*=''''''..'.!",
"...=!%%$#%='''''''.'''=",
"...=.==*%!''''''..'.'!=",
".......................",
".......................",
".......................",
".......................",
".......................",
"......................."};
