/* XPM */
static const char * lower_f_xpm[] = {
"23 39 18 1",
" 	c None",
".	c #000000",
"+	c #030202",
"@	c #200C02",
"#	c #290E03",
"$	c #4F1A06",
"%	c #662906",
"&	c #331104",
"*	c #401806",
"=	c #802E07",
"-	c #A03D06",
";	c #9E5A0A",
">	c #C84D05",
",	c #D2780A",
"'	c #F0CD1B",
")	c #E09B10",
"!	c #AA9013",
"~	c #A7720B",
"..+++++++@@##$%&#++++++",
"..+++++*$$%%=-;-=$@++++",
"..++++&=-->>,''),-$##++",
"..++++$=->,''''')>=$=@+",
"..++#+*%=;!);===%$$&@++",
"..+@%*=-,'')>--====&@++",
"..++@$$-)''>--==%*#++++",
"..+++%%=)')--=&@@++++++",
"..++@%=%)')--=+++++++++",
"..+@$%=>;')-=%+++++++++",
"..++#&=>~!)==$+++++++++",
"..+++&=>)!~-=$&&+++++++",
"..+++&=>)';-=%@#&++++++",
"..++&$->)')%--$$*@+++++",
"..+&=-,,)');;;;$$*+++++",
"..+$-,''''''~)>$$++++++",
"..+&=>,)''');;=$*++++++",
"..+@$=->)')=-==*+++++++",
"..++@#=-)'~==%*&+++++++",
"..++++%-)'~-==*++++++++",
"..+++*==)!);=%+++++++++",
"..+++#=;~!)-=$+++++++++",
"..+++@$-~')==$+++++++++",
"..++@%%=)')-=*+++++++++",
"..++@%$=)')==$+++++++++",
"..+++@$>)')-=$+++++++++",
"..+++@=>,')-%$+++++++++",
"..++#$%-)')-=$+++++++++",
"..+++&$-,',-=$+++++++++",
"..++++*=-,---$+++++++++",
"..++++*$===%%*+++++++++",
"..++++*+&#&#+++++++++++",
"..+++++++++++++++++++++",
"..+++++++++++++++++++++",
"..+++++++++++++++++++++",
"..+++++++++++++++++++++",
"+++++++++++++++++++++++",
"+++++++++++++++++++++++",
"+++++++++++++++++++++++"};
