/* XPM */
static const char * lower_l_xpm[] = {
"23 39 17 1",
" 	c None",
".	c #030202",
"+	c #220B02",
"@	c #2C0F08",
"#	c #4E1C09",
"$	c #804009",
"%	c #8F5509",
"&	c #8E4709",
"*	c #5D2509",
"=	c #B89409",
"-	c #C1A208",
";	c #CEB609",
">	c #A17608",
",	c #3A1808",
"'	c #6D2A09",
")	c #792B08",
"!	c #965E0A",
"......+++..@#..........",
"....+@#$$%&&$*.........",
"....@#$=-;;=%$#........",
"....@*$>=;;;=$*,.......",
"....+*')&>;;;$#........",
".....@#*)$-;;&*,.......",
"......+''$=;-&'#.......",
".......*'$=;-&'*.......",
".......,*%-;-%',.......",
"........*%-;-&',.......",
".......+'%-;=&'+.......",
".......+'!-;-&',.......",
"........*%=;=$',.......",
"........#$=;=&'........",
"........#$-;-$',.......",
"........*$=;=)',.......",
"........*$=;=$'+.......",
"........*$-;=$)#.......",
"........*&-;=$)*+......",
".......,'$=;=$'*.......",
".......+'%-;>$'#.......",
"........#&=;>''#.......",
"........#&=;>$',.......",
"........#$=;>)'#.......",
"........#$=;>)'#.......",
"........#&=;>$'#.......",
"........#&-;>$'#.......",
"........,$-=!))#.......",
"........#$=>&)*@.......",
"........,'&%)'@++++....",
"........,#'**#@++,+....",
"........,.+.,+.++@.....",
"................@......",
".......................",
".......................",
".......................",
".......................",
".......................",
"......................."};
