/* XPM */
static const char * lower_j_xpm[] = {
"23 39 33 1",
" 	c None",
".	c #030202",
"+	c #000000",
"@	c #020202",
"#	c #140802",
"$	c #200C02",
"%	c #3A1606",
"&	c #4D1E08",
"*	c #642908",
"=	c #75320A",
"-	c #8A500A",
";	c #B58E0D",
">	c #9A670C",
",	c #2E1306",
"'	c #D3BA0E",
")	c #EADC11",
"!	c #9F710A",
"~	c #C7A90D",
"{	c #7E430A",
"]	c #2E1206",
"^	c #612B07",
"/	c #703509",
"(	c #7E4909",
"_	c #491F06",
":	c #9F7A0C",
"<	c #BCA30E",
"[	c #CDB40E",
"}	c #E4D311",
"|	c #1F0B02",
"1	c #A88C0C",
"2	c #D5C00E",
"3	c #91610A",
"4	c #3A1A06",
".......................",
".......................",
".......................",
"...+++++++++++++++.....",
"...+.....@@####$@@@@@..",
"...+.....@#$%&&&%#@@@..",
"++++++...@#&*==**%#@@..",
"+++......@$*=-;>=*&$@..",
"+++......@,*-')'>=*%@..",
"+++......@,=>'))!=&,@..",
"+++......@$=-~)'-=&$@..",
"+++......@,*{>;>{*%#@..",
"+++......@#%*{{{=&$#@..",
"+++......@@$&*=**%#@@..",
"+++........]^/(/_#.....",
"+++........_/:<:^]#....",
"+++........^([}<^_|#...",
"+++......._/([}1/^]....",
"+++.......|/(<<[(/_....",
"+++........^(<}2(/_....",
"+++.......|_(2}23/]....",
"+++.......|_3}}2(/_....",
"+++.......|_3}}2(/_....",
"+++......+#/3}}2(/_....",
"+++......+|^3}}2(/]....",
"++++++++++#/3}}2(/_....",
"++++++++++|^/[}<(/]....",
"++++++++++.|_1<:_]#....",
"++++++++++#_(2}[/_|....",
"++++++++++4^:}}[(^]....",
"+++|_^^^_44^:}}[(^].#..",
"+++4//(((/^/1}}[//].|..",
"+++4/3<<13((2}}:/^|##..",
"+++_/:}}}2[[}}2(/_.#...",
"+++_/3<}}}}}2[://4#....",
"+++4^/(:<2}21(/^^_#....",
"+++|_^//(3:3//^^^]#....",
"+++.|4_^^^^^^__^4#.....",
"+++..##|_^_4|#|]#......"};
