/* XPM */
static const char * lower_k_xpm[] = {
"23 39 17 1",
" 	c None",
".	c #020202",
"+	c #CFAF12",
"@	c #964E0E",
"#	c #5E2A0A",
"$	c #421E0A",
"%	c #965E12",
"&	c #8A7A06",
"*	c #271206",
"=	c #B68216",
"-	c #DAC212",
";	c #7A3A0A",
">	c #EED222",
",	c #82560A",
"'	c #A4720F",
")	c #4E1E0A",
"!	c #BA9612",
".......................",
".....*$................",
"..*)#;#$...............",
"..*#;''#)..............",
"..#)@+!##$.............",
".$#;,-!;)..............",
".)#;&!-@#$.............",
".##;!&+@#).............",
".##;+!&@##.............",
".$#@!-&##$.............",
"..#@!-')#$.............",
".*#@!+';)*.............",
".*#'+-';#*.............",
"..#@!-'##*...*$$*......",
"..);!-!;#..*$@@;)*.....",
"..);+-+;#$**'++'#*.....",
"..#;!-!#;###!>+@#*.....",
"..#;!-!@@@,-!+'#*......",
"..#;+-+'''+-!#$*.......",
"..#;!-+++!>!;*.........",
".$#;!---!>'#*..........",
".*#@+->!!!;$...........",
"..)@+->!>+@$*..........",
"..)@+-&->>!;$*.........",
"..)@+!&'+>-!;$*........",
"..)@+&!@@!--!;)*.......",
"..);&!+;;@!--!@)*......",
"..$#'++;###'--!@$*.....",
"..)#=-!##)*#'-+'#*.....",
"..*#%!%##$.*#@'@;*.....",
"..*)#))))$..*$#;)*.....",
"..$.*.**.....****......",
".......................",
".......................",
".......................",
".......................",
".......................",
".......................",
"......................."};
