/* XPM */
static const char * lower_v_xpm[] = {
"23 39 17 1",
" 	c None",
".	c #030202",
"+	c #CEB212",
"@	c #7B470E",
"#	c #68340D",
"$	c #4F2609",
"%	c #C2A410",
"&	c #2C1303",
"*	c #AB860F",
"=	c #1F0F03",
"-	c #9C720E",
";	c #8C630D",
">	c #6D4F09",
",	c #140B03",
"'	c #DBC113",
")	c #85550E",
"!	c #3E1D08",
".......................",
".......................",
".......................",
".......................",
".......................",
".......................",
".......................",
".......................",
".......................",
".......................",
"....,............,,....",
"..,!$!,.==,.....=!!=...",
".=$###$!$$&....&$#$$&..",
",!#######$&...=#@###$..",
"=$###@@##$&.,=$@;)##$,.",
",$##-%%@##!,&$$-+%@##&.",
",$#@%''*##!&$#@%'+)$#&.",
"&!##-''+@#$$##)%'+)$!,.",
"=!##)%''-#####-''*#&=..",
".=$#@*''%@$##;+'%)#$...",
".,!#$)''';###%''*##$,..",
"..,=$@%''-##)%'';#$&,..",
"....=&>%+*#$;%%;!&=,...",
"....&!@%''-)+'+@##!....",
"....=$@*''+-''+@##!,...",
".....&$)%''+''-###&....",
"..====!@-+'''+)##!,....",
"======!$@-'''*@#$=.....",
"=====&!##@%+%)##!......",
"=====&!$##))@#$&,......",
"====&&!######$&........",
"===&&&!$$$###$=........",
"===&&&&&&!$$$&=........",
"==&&&&&&&&&&&&=........",
"==&&&&&&&&&=&&=........",
"==&&&&&&&&&=&&=........",
"===&&&&&&&&=&&=........",
"===&&&&&&&&&&==........",
".===&&&&&&&&&=........."};
