/* XPM */
static const char * lower_y_xpm[] = {
"23 39 17 1",
" 	c None",
".	c #020202",
"+	c #C7A810",
"@	c #763F0E",
"#	c #5F2F0A",
"$	c #412107",
"%	c #B38F12",
"&	c #231202",
"*	c #9B810F",
"=	c #8F6E0B",
"-	c #E1C916",
";	c #6B5F0B",
">	c #574B07",
",	c #1A0B02",
"'	c #88550E",
")	c #543808",
"!	c #3A3206",
".......................",
".......................",
".......................",
".......................",
".......................",
".......................",
".......................",
".......................",
".......................",
".......................",
".......................",
"......&&&........&$&...",
".....&##$.......&#@#$&.",
".....$##@#......$#''##.",
".....#@%%@$....&&'%%@#.",
".....#'++=#...&$#%+%@$.",
".....$@%-%#&..&&'+-%@#.",
".....$@'-+'$&.&#=-+'#&.",
".....$#'+-'#&.$#%-%@#$.",
".....,$@%+=#&,#'%+=##&.",
"......$#'%='#&''=%@#&..",
"......,$$)>;$&@=>)$,...",
"......,&##++'!+-%@#&...",
"......&$$#+-+>--+##&...",
".......&$$'--*--=#$&...",
".......&##$%-*-*@#$,...",
".,,,,,...&#)+*+'##$&&..",
",&&&&&&&&$@=;;=)##$&&,.",
"&&&&&&$#$#'++!)##$&&&..",
"&&&&&&&$$@%-->&##&&&&..",
"&&&&&&$##=--+$#&&&&&...",
"&&&&&&#@@%-+'$#$,,&&...",
"&&&,,&$$$;;>&,&,,.,....",
"&&&&$#@@+-+@#,&&&&,,,..",
"&&&&$@@=--=##,&&&&&&&,.",
"&&&&$@@%-%@#$,&&&&&&&&,",
"&&&&$#@==@@#$,&&&&&&&&,",
"&&&&&$##@###&,&&&&&&&&&",
",&&&&&$$$$&&&,&&&&&&&&&"};
