/* XPM */
static const char * lower_c_xpm[] = {
"23 39 17 1",
" 	c None",
".	c #060202",
"+	c #DABA07",
"@	c #BE890E",
"#	c #A65911",
"$	c #7D400B",
"%	c #5F2F0A",
"&	c #442006",
"*	c #2E1605",
"=	c #1A0A02",
"-	c #C8940C",
";	c #AE7810",
">	c #8B6A06",
",	c #DEC20A",
"'	c #E9D506",
")	c #D7AC0B",
"!	c #160B02",
".......................",
".......................",
".......................",
".......................",
".......................",
".......................",
".......................",
".......................",
".......................",
".......................",
".......................",
".......................",
"..........%%%*==..===..",
"......=&&&$$$&&&=====..",
"...===&%%#;>;#%%&====..",
"...=&&%#)),),))#%&&!!..",
"...=%%;)'''@,'');%%==..",
"...*$;)'',@$@)''-#$**!.",
"..=&>),,)##$#;))@;%**..",
"..=&>@>>$$$&%%$###*=!..",
"..&%)+@$$$$%&*&$$%*=!..",
"..&$,)>$&*%*!.!*!!!!...",
"..&$)+-$&&&*=..!!!.....",
"..=&@',;$&*&&=*%&=!....",
"..==;,');$%*$$###%*....",
"...=$)'');#%#;)-;#%!...",
"...=%;,'',);@,',-#$!...",
"...==%;)''')'''+;#&!...",
"...===%#),,@,,)#%&=!!..",
"...====&%#;>;#%&====!..",
"...=====.=&&&=.======..",
".......................",
".......................",
".......................",
".......................",
".......................",
".......................",
".......................",
"......................."};
