/* XPM */
static const char * lower_g_xpm[] = {
"23 39 17 1",
" 	c None",
".	c #060202",
"+	c #E2BA06",
"@	c #C2920E",
"#	c #863E0A",
"$	c #753B0A",
"%	c #472006",
"&	c #AB7E0E",
"*	c #301303",
"=	c #A5610F",
"-	c #1B0A02",
";	c #6F6706",
">	c #E6C606",
",	c #EADA06",
"'	c #DAAE0A",
")	c #5E2A0A",
"!	c #735E06",
".......................",
".......................",
".......................",
".......................",
".......................",
".......................",
".......................",
".......................",
".......................",
"...........-...........",
"............-..........",
"..........*--*.----*-..",
".......-**)%))*-*)#%*..",
"....--*%%%#%)#%*%#=#%..",
"..--*-%))=&==&=*#@&#%-.",
"..--%%)=''>&,,!&@'@$$*.",
".---))&',,>='&;,>>@$$*-",
".-*%$&',,'@)#)@,,>'#$*.",
".-)$#&','&=)%)=>,>'#$*.",
"..%#)',>&$%**$=',,'#$--",
".-%%#&&)%%*-*%)#=&&#%%-",
"..##&>>&$$*-%%$=>,'##%.",
"..%#@,'=)%**%%)=>>>##%.",
"..-#&,>&#*$%%$$&+>>#*..",
".-%#&>,'$)$*$$=',,+#%..",
"..*)#',&!&#)=&'>,,>=#-.",
"..-%#&';,>@&'>,,,,+=)-.",
"..--*#$',,>',,,'>,'#%..",
"..----*#'>>@>>'=>,>#)*.",
"..---.---$!$!$%)!;!)%-.",
"..--*%%**-%%%*)&>,'##*.",
".-*-%###)*...-#=,,'#)-.",
".**%)=@'&==##==',,'##%.",
"--**#&>,,'@##@',,>&##)-",
".**-))&>,,>@',,,'&))**.",
".-*-%%)=''>',>''=)%%*-.",
"..-*--%%)=&=@&=))%--.-.",
"..-----%%%####%%%-----.",
"......................."};
