/* XPM */
static const char * lower_t_xpm[] = {
"23 39 17 1",
" 	c None",
".	c #030202",
"+	c #DDCB0E",
"@	c #84510A",
"#	c #6C3309",
"$	c #582807",
"%	c #431F06",
"&	c #9C790A",
"*	c #391805",
"=	c #2D1404",
"-	c #AF930A",
";	c #1D0D02",
">	c #736007",
",	c #160B02",
"'	c #BFAA0B",
")	c #100702",
"!	c #705406",
".......................",
".......................",
"...)...................",
"..........,)...........",
"....)......;)....,.....",
"..**.;*.....;....*.....",
"...%,)==,,,;;;..%=.....",
"...,%.)*;*%%%==**......",
"....%*.=$###$%%*.=.....",
".....$),$#@-&$%**=.....",
".....=$**@'+-#*%%......",
"....,%$$%@++'!%%%*,....",
"...)$####$+++#$*$$$,...",
"..,%##@&&!-+'&-%###*...",
".)*$#@'+++-+'+'!'@#*...",
".)*##>'++'+'++'>+&#*...",
"..,%##@>@@'''&#>@#$*...",
"...,$##$##-+&$%$$$%,...",
"....,==$#$-+>$#$$%,....",
".......*$$&&-#$%=).....",
".......%%%>'+!%$,......",
"...),,;=%$&''@$$=,.....",
".....,=%##-++@#=,......",
"...,,;)$##-++@#*,......",
"...)).,$##&++&##,......",
"...;=%%###-++&#$,).....",
"...))),=*%!>>$*=,)))...",
"...;=**###-+'@##*=)....",
"...),,,$##&+-@#*)))....",
"...),))=##@-@#%=,))....",
"....))),%####$$%,).....",
".....),,;%#$$$$;)).....",
"......,,,;%%*;,))......",
".......,,,,,)))).......",
".......))))))).........",
".........))))..........",
".......................",
".......................",
"......................."};
