/* XPM */
static const char * lower_w_xpm[] = {
"23 39 17 1",
" 	c None",
".	c #030302",
"+	c #E8CF1A",
"@	c #C37220",
"#	c #A2541A",
"$	c #833F12",
"%	c #622B10",
"&	c #D5991E",
"*	c #4A260B",
"=	c #3C160C",
"-	c #A6960B",
";	c #E3BF1A",
">	c #2A1008",
",	c #B06F14",
"'	c #F6E918",
")	c #1F0F06",
"!	c #1A0D04",
"..!>>...........!>!....",
"..!!!..................",
".......................",
".......................",
".......................",
".......................",
".!..................!!.",
".!..................>).",
"....................)..",
".......................",
"...!.......!...........",
"....!......!....!)!....",
"..=*........!.....%=...",
"..$$>.....$$.....=##=..",
"..#@#....=&@=....%@&$..",
">=,;&%...%&;@...!$;;#..",
">=,'+$..=$+';%..*,'+$..",
"..#+'#).%@'''$..%&';$..",
"..#&'@*.%;'+'@*.%;'&$..",
"..$-'&%)#+';'&%)#+'#$..",
"..%,'-$*@;;&'-$*@;;#*..",
"..*#--@$;-&@--@$;-@%...",
"..*$,+&,'+,#,+&,'+#=...",
"..=$#';&';,##';&';#=...",
"...%#;'+'&$$#;'+'&$)...",
"...=,&'''@$=,&'''@$....",
"...!$@''+@=!$@''+@=....",
"....%@;'&@*!%@;'&@*!...",
"....!$&+,$*)!$&+,$*)...",
"....>*,@#**)>*,@#**)...",
"....>*##$**!>*##$**!...",
".......................",
".......................",
".......................",
".......................",
".......................",
".......................",
".......................",
"......................."};

