/* XPM */
static const char * lower_p_xpm[] = {
"23 39 17 1",
" 	c None",
".	c #070302",
"+	c #E6C606",
"@	c #BD8F0C",
"#	c #86400A",
"$	c #622C0A",
"%	c #482306",
"&	c #AA7E0E",
"*	c #331303",
"=	c #726206",
"-	c #A6630E",
";	c #1C0B02",
">	c #D9AF09",
",	c #E9D906",
"'	c #783C0A",
")	c #9A5E0E",
"!	c #140802",
".......................",
".......................",
".......................",
".......................",
".......................",
".......................",
".......................",
".......................",
".......................",
"...........;...........",
"..........;............",
"..;*;;;;.*;;*..........",
"..*%#$*;*$$%$**;.......",
"..%#-#%*%#$%#%%%*;;....",
".;%#&@#*-&--&-$$%;*;;..",
".*''@>@&=,,&+>>-$%%;;..",
";*''@++,=&>-+,,>&$$;;;.",
".*'#>+,,@$#$@>,,>&'%*;.",
".*'#>+,+-$%$-&>,>&#'$;.",
";;'#>,,>-'**%'&+,>$#%..",
";%%#&&-#$%*;*%%$&&#%%;.",
".%##>,+-'%%;*''&++&##..",
".%##+++-$%%**%$->,@#%..",
"..*#++>&''%%'*#&+,&#;..",
"..%#>,,>-''*'$'>,+&#%;.",
".;#-+,,+>&-$#&=&,>#$*..",
".;$->,,,,+>&@+,=>&#%;..",
"..%#>,+>,,,>+,,>'#*;;..",
".*$#+,+->++@++>#*;!!;..",
".;%$===$%'='=';;!..!!..",
".*##>,+&$*%%%;;!....!..",
".;$#&+,)$!...!.!.....!.",
".%##&,+-*;!........!.!.",
"!%##@,+)%!........!!.!!",
".*''&,>)%!!....!!!!..!.",
".%''@+>#%!!....!!!!....",
".*$')&)'%!.........!...",
"..*$$$$$*..........!!..",
"...;%%%*!.............."};
