/* XPM */
static const char * lower_o_xpm[] = {
"23 39 17 1",
" 	c None",
".	c #040202",
"+	c #DEB20A",
"@	c #AE5A12",
"#	c #7C3C0B",
"$	c #5F2C0B",
"%	c #421E06",
"&	c #341806",
"*	c #BD8F0D",
"=	c #977F06",
"-	c #DFC208",
";	c #190B02",
">	c #896406",
",	c #B37512",
"'	c #E9D406",
")	c #9C4C14",
"!	c #CFA60D",
".......................",
".......................",
".......................",
".......................",
".......................",
".......................",
".......................",
".......................",
".......................",
".......................",
".......................",
".......................",
"..........$$$&;;..;;;..",
"......;%%%###%%%;;;;;..",
"...;;;%$$),>,@$$%;;;;..",
"...;%%$)!+-+-++@$%%;;..",
"...;$$,!'''*-''+,$$&&..",
"...&#=+''-*#*+''+,##$;.",
"..;%>!--+@@#@,+''+##%..",
"..;%>*=>###%$$#>==#%%;.",
"..%$+--@)##$###,--,##;.",
"..%#---@$%$&$$$@+'*#%..",
"..%#+-+@$%%&$%$@+'*#%..",
"..;%*'-,#%&%$%#,-'*#&..",
"..;;,-'!,#$&##,+'-,)%..",
"...;#!''!,@$),+''+)$&..",
"...;$,-''-+=*-''+,#&;..",
"...;;$,!'''+'''+,#&;;..",
"...;;;$)!--*--+@$&;;;..",
"...;;;;%$),>,@$%;;;;;..",
"...;;;;;.;%%%;.;;;;;;..",
".......................",
".......................",
".......................",
".......................",
".......................",
".......................",
".......................",
"......................."};

