/* XPM */
static const char * lower_m_xpm[] = {
"23 39 17 1",
" 	c None",
".	c #030302",
"+	c #DABB0A",
"@	c #8A4D0F",
"#	c #78410D",
"$	c #67380A",
"%	c #CEAC0A",
"&	c #5B300A",
"*	c #B6910A",
"=	c #462608",
"-	c #A87A0C",
";	c #341D06",
">	c #9D6A0E",
",	c #251505",
"'	c #E8CE0A",
")	c #1E1202",
"!	c #92600D",
".......................",
".......................",
".......................",
".......................",
".......................",
".......................",
".......................",
".......................",
".......................",
".......................",
".......................",
".);=;).................",
")=###=;==..).;;==..)...",
")&####$$$&;=;#$$$&=&=).",
",$!>@@#@##&$&@#@##$#$;.",
";@*+%@!>>@###@!>>@###$)",
"&>*+'**+'%!#@%%++%-##&)",
"=@-'''''''*$*''''''!$&)",
"=#*'''+-%''+''%-%''+@$;",
"$#*''*-@!%'''%@#@%''@$,",
"&@*''>!#@>+''-#$#*''>#$",
"&#-''-@#@@%''>$$&>'+*!#",
"&#-'%##$#!%'+!$&&@''*!$",
"&@*'+@$&#!%''>#$&@''*@#",
"&@-'%@#=#!%'+!#$$!'+>##",
"$@-'%@###>%++>###>'%!##",
"=@-+-#$##@*'+!#$$#+'-#$",
"&@-'*@###@*'%@#&$!+'*#&",
"&#>+!@&=#@-'-@$=$#*+>@&",
"=#@>$#$;=$@>@@,,=$@>@#;",
")&$#=$&,;;####).);###$)",
"..)==))))))=#;....,&#$)",
"............)......;=,.",
"...................))..",
".......................",
".......................",
".......................",
"..)))..................",
"..))).................."};
