/* XPM */
static const char * lower_i_xpm[] = {
"23 39 18 1",
" 	c None",
".	c #020202",
"+	c #200C02",
"@	c #140802",
"#	c #3A1606",
"$	c #4D1E08",
"%	c #642908",
"&	c #75320A",
"*	c #9A670C",
"=	c #B58E0D",
"-	c #8A500A",
";	c #D3BA0E",
">	c #EADC11",
",	c #2E1306",
"'	c #9F710A",
")	c #C7A90D",
"!	c #7E430A",
"~	c #000000",
".......................",
".......................",
".......................",
".......................",
"..........+@@@@........",
"........@#$$$#+@.......",
".......@#%%&&%$@.......",
"......+$%&*=-&%+.......",
"......#%&*;>;-%,.......",
"......,$&'>>;*&,.......",
"......+$&-;>)-&+.......",
"......@#%!*=*!%,.......",
"......@+$&!!!%#@.......",
".......@#%%&%$+........",
"........#%!!!%#@.......",
"........%&';'&%+@......",
".......#&!)>)&%,.......",
".......+&-;>;-&#.......",
"........$-)>;!&#.......",
"........$-)>;-&,.......",
"........$-)>;-&,.......",
"........$!;>;!&#.......",
"........$!;>;!&#.......",
"........$-)>;-&#.......",
"........$-)>;-&#.......",
"........$-)>;-&#.......",
"........$-)>;-&#.......",
"........$-;>)-&#.......",
"........$!))'&%+.......",
"........#&-'&&,@.@@....",
"........#$&%%$,@.+.....",
"........#.+.#+.@@......",
".......................",
".......................",
".......................",
".......................",
".....~~~~~~~~~~~~~~~...",
".......................",
"......................."};
