/* XPM */
static const char * lower_x_xpm[] = {
"23 39 17 1",
" 	c None",
".	c #030202",
"+	c #E1C218",
"@	c #BB7D19",
"#	c #935112",
"$	c #7B4212",
"%	c #61310D",
"&	c #4A220B",
"*	c #351808",
"=	c #BF8E15",
"-	c #271205",
";	c #F5E61F",
">	c #A36B13",
",	c #210E06",
"'	c #CFA617",
")	c #1A0C03",
"!	c #EED618",
"..)--...........),)....",
"..))...................",
".......................",
".......................",
"...)...................",
".......................",
".).....................",
".).....................",
".......................",
".....................).",
".....................-.",
"......)).......,)......",
".....&$%-....)&$$&,....",
".....%>@$*...*#@@#%-...",
"...)*#'+=$-.,%@+'>$-...",
"....)$=!'>&)*#'!'>$-...",
".....%>++@$*%@++@#%....",
".....&#='=#$#'+=>$*....",
".....*%>'+=>'!'>$%)....",
".....,%#=++'+!'#&-.....",
"......*$@'!!;+@$*......",
".......%>';;;+@$*......",
"......*$@+!!;+@#%).....",
".....-$#'!+'+!'>%,.....",
".....&#>++=>'!+@%,.....",
".....&#=+'#$#+!'#%-....",
".....%>++@$%%@++@#&....",
"....)$=!'>%%&#'!'#*....",
"...)*#'+=$*--%@+'>&....",
".....%>@$*...*#@@#*....",
".....&$%-....)&$$&)....",
".......................",
".......................",
".......................",
".......................",
".......................",
".......................",
".......................",
"......................."};

