/* XPM */
static const char * lower_u_xpm[] = {
"23 39 17 1",
" 	c None",
".	c #030302",
"+	c #DDBC09",
"@	c #9D4F11",
"#	c #7C420D",
"$	c #613509",
"%	c #4D2709",
"&	c #A76E10",
"*	c #3C2006",
"=	c #2E1B04",
"-	c #8C7309",
";	c #AF8D09",
">	c #1D1002",
",	c #8C6E08",
"'	c #CCA60D",
")	c #E9D406",
"!	c #866607",
".......................",
".......................",
".......................",
".......................",
".......................",
".......................",
".......................",
".......................",
"..................>>>..",
"..................>>>..",
".......................",
".......................",
"....>=>........>*%>....",
"...>$##=>.....>$%#$*...",
"...%@&@$*>....>$$&@$>..",
"..>#&+;#$>...>=$!+;#%..",
"..=#;+'!$=>.>>$#;)'@%>.",
"..>$#-,$*=...>*$,;-$*..",
"..=@;+'@$$=>>>=-+);#$>.",
"..*#;)'#$%>>%*=;))'@%..",
"..%@;);%$*>>%$$!+)+@%..",
"..*@;+#$$$*>*$@$;)+#%..",
".=%#;!-@$$*>%$@&;''#%..",
".=%##;+&@#%%##&&);!@%..",
".>%*#+)'&@#$@@&'))!#$..",
".>$*@'))'&@#&&')));$%>.",
"..>>%$-;;;-$-;;;;;-$=>.",
"...=##@')))')))'+)'@$>.",
"..>%$##@'++,++'&+)'@$>.",
"...>=$%##@&#&#$@@;@#$>.",
"...>=%=%$$%%$$$$###$=..",
".....>..**..>===$%$$%>.",
"...............>====>..",
".......................",
".......................",
".......................",
".......................",
".......................",
"......................."};
