/* XPM */
static const char * lparen_xpm[] = {
"23 39 17 1",
" 	c None",
".	c #020202",
"+	c #F1E812",
"@	c #B34F12",
"#	c #7C330E",
"$	c #EFCF12",
"%	c #4C1D0C",
"&	c #DCAC12",
"*	c #251004",
"=	c #D69612",
"-	c #CB8711",
";	c #160E02",
">	c #CE7E11",
",	c #993E0E",
"'	c #C27012",
")	c #A4660E",
"!	c #C26212",
"...........***%%%*;;.;;",
"..........%%###,,#*;.;;",
".........*###>-),,%;;;;",
".....****#,@&++$@,%;;;;",
"....****%,!$++$>,#*;;;;",
"....***%#!$+$=@,,#%;;;;",
"....**%%,&++=@,,#%;;;;;",
"....**%#@$+$!@,#%;;;;;;",
"....*%#,>++=@@#%*;;;;;;",
"....*%#!$++@@,#%*;;;;;;",
"....*#@&++&@@@#%;;;;;;;",
"....%@@$++>@@,%%;;;;;;;",
"....#!!$+$@@@#%*;;;;;;;",
"....,!=++&@@,#%;;;;;;;;",
"....,!&++=@@,%*;.;;;;;;",
"....@!&++=@@,%%;.;;;;;;",
"....@!&++-@@#%%;;;;;;;;",
"....@!&++=@@,%%%;;;;;;;",
"....,!-++&@@,%%;;;;;;;*",
"....#@!$+$@@,%%%;;;;;;*",
"....#@@$+$!@,#%%;;;;;;*",
"....%,,&+$>@@,%%*;;;;;*",
"....%,#-++=!!@#%*;*;;;*",
"....%##@$$$>!@,%*;*;;;*",
"....*%##=$+&!@,%*;;;;;;",
".....%##@$++>!,%%%;;;;;",
".....*%#,=++$=!,#,%;;;;",
".....*%##,=+++$=@#%;;;;",
".....**%%#,!&+$=,,%;;;;",
".....***%##,,)@#,,%;...",
".....*..*%##,,,,##%;...",
"............;%%%%*;;...",
"...............;;;;;...",
"................;;;;...",
".................;;;...",
".............;;........",
".......................",
".......................",
"......................."};
