/* XPM */
static const char * lsquare_xpm[] = {
"23 39 17 1",
" 	c None",
".	c #020202",
"+	c #823C0F",
"@	c #8D4C0F",
"#	c #70300C",
"$	c #5B2608",
"%	c #451D09",
"&	c #2A0E0A",
"*	c #C1671E",
"=	c #BE791F",
"-	c #995612",
";	c #361202",
">	c #CE921B",
",	c #EAD21E",
"'	c #D9BD15",
")	c #F4E91C",
"!	c #C6A512",
".......++++++@#$%......",
".....&%*==*--@@$;......",
".....%#>,,''>>-+#$.....",
".....$#')))),)!+$$.....",
"....%#@))))))'=+#;.....",
"....%#@,))>>=-+##......",
"....$#@,),=**@+$%......",
"....$#@,),**-%;........",
"....%$-')'@#%..........",
".....$-')!##%..........",
"....&#-')!+#&..........",
"....&#-')!+#%..........",
".....$@')!##%..........",
".....%+')'+#...........",
".....%+')'+#%..........",
".....$+')'##%..........",
".....$+')'@#&..........",
".....$+')'@#&..........",
".....$+')'@#%..........",
".....$+')'@#$&.........",
"....%#+')'@#$..........",
"....&#-')!+#&..........",
".....$-')!##%..........",
"....%$-')'@#%..........",
"....$#@,),**-%;........",
"....$#@,),=**@+$%......",
"....%#@,))>>=-+##......",
"....%#@))))))'=+#;.....",
".....$#')))),)!+$$.....",
".....%#>,,''>>-+#$.....",
".....&%*==*--@@$;......",
".......++++++@#$%......",
".......................",
".......................",
".......................",
".......................",
".......................",
".......................",
"......................."};
