/* XPM */
static const char * percent_xpm[] = {
"23 39 33 1",
" 	c None",
".	c #000100",
"+	c #0B0401",
"@	c #170701",
"#	c #1F0D06",
"$	c #280F08",
"%	c #310F06",
"&	c #311404",
"*	c #3A1603",
"=	c #401600",
"-	c #411C05",
";	c #501E0A",
">	c #581F07",
",	c #612609",
"'	c #68270D",
")	c #712C05",
"!	c #812E07",
"~	c #803308",
"{	c #7B3413",
"]	c #953314",
"^	c #92370B",
"/	c #993606",
"(	c #903B13",
"_	c #8F4015",
":	c #A6510F",
"<	c #B14F0A",
"[	c #CA620D",
"}	c #CB6912",
"|	c #DA7B0C",
"1	c #E8B100",
"2	c #F3DD00",
"3	c #F2DC13",
"4	c #F9F40A",
".......................",
".......................",
"......@................",
"....+),$+...@@==-=>@...",
"...%)>;;*@@@==---->>%@.",
".+':~(:,,%@=>>>'!''>>@@",
".#!}:1:},;->'<[[<!'>>@.",
".,/1241}~>>!/|331[_>@..",
"@/:1244}('/<|343|<''@..",
"=!(1241}:!/<1343|[_>=@.",
";^}1244}:/<|443|[<_=@@.",
"#{;:11:~!_[1443|[_'-@@.",
"+*;;~~(!/<1443|[/!!-@..",
".@$;,''!<[1443[</!!*+..",
"..+=>!</[1443[_!_!*+...",
".+.%-!/<|1443<!!<'%+...",
"..@%>!/<|331_'!!_,$+...",
"..@%>!_[1443<!/!>;;*+..",
".@%'/_/|331_'!:~(:,,&..",
".@%'!<[1443<!/}:1:},;+.",
".>>!</<443<!//1241}~;@.",
"@%='<[1443/!/:1244}(;#.",
".>>/<|341<!/^(1241}:;$.",
"%=><<1441[</]}1244}:,@+",
".@/<[143[_!'{;:11:~;$$.",
"@='/[14|[[:)*;;~~(;*$@.",
"..@!//!!>>&+$$;,,;$$$+.",
".....@>''@...++++++++..",
".............+++++++...",
"............+.+++......",
".......................",
".......................",
".......................",
".......................",
".......................",
".......................",
".......................",
".......................",
"......................."};
