/* XPM */
static const char * period_xpm[] = {
"23 39 17 1",
" 	c None",
".	c #0A0602",
"+	c #F2DE12",
"@	c #C46412",
"#	c #913A12",
"$	c #622709",
"%	c #4F1F09",
"&	c #3A1607",
"*	c #CE6A12",
"=	c #291007",
"-	c #EAB212",
";	c #200C04",
">	c #1A0A02",
",	c #80330A",
"'	c #130702",
")	c #FAF612",
"!	c #A75111",
".......................",
".......................",
".......................",
".......................",
".......................",
".......................",
".......................",
".......................",
".......................",
".......................",
".......................",
".......................",
".......................",
".......................",
".......................",
".......................",
".......................",
".......................",
".......................",
"..;.....'>;==>......'..",
"..;...>>;=&%&==>....'..",
"..;..>==&&%$%%%&=......",
".....>&=%%!,#!$$&>..'..",
"..;..>&==&@!-!*$%>>....",
".....==&%,-+)-*,%&=>'..",
".....>=%$!-+))*#%=..'..",
".....'=&$#-+)-*!%=>.'..",
".....>=&,@-+))*!$>>....",
".....>=&&%!--!,%==..>..",
".....;==&%%,,#%&==.....",
"......;===%$$%===>.....",
".......................",
".......................",
".......................",
".......................",
".......................",
".......................",
".......................",
"......................."};

