/* XPM */
static const char * pipe_xpm[] = {
"23 39 17 1",
" 	c None",
".	c #020202",
"+	c #CAB30A",
"@	c #7F3B0A",
"#	c #732F0A",
"$	c #4F1B0A",
"%	c #C2A60A",
"&	c #3E1A0A",
"*	c #B3920A",
"=	c #98640A",
"-	c #2B0E0A",
";	c #84450A",
">	c #8F540A",
",	c #61270A",
"'	c #AE860A",
")	c #D2BE0A",
"!	c #7A3A0A",
".......&$$$$#$&........",
".......&##!>;#&........",
".......$,#=%';$........",
".......$#!%)%>&........",
".......$,@+))=$........",
".......$#@%)+>$........",
".......$##%)+>$........",
".......&#@%)+>$........",
".......&#@%)+>$........",
".......$##%)+>$........",
".......$#;%)+>#-.......",
".......,#>+)+;#&.......",
"......-,#@*+*!,........",
".......$##>*=#,........",
".......-#!>>;#,........",
".......&##!!!#,........",
"........,#!!!##&.......",
"........,#;>>!#-.......",
"........,#=*>##$.......",
"........,!*+*@#,-......",
".......&#;+)+>#,.......",
".......-#>+)%;#$.......",
"........$>+)%##$.......",
"........$>+)%@#&.......",
"........$>+)%@#&.......",
"........$>+)%##$.......",
"........$>+)%@#$.......",
"........$=))+@,$.......",
"........&>%)%!#$.......",
"........$;'%=#,$.......",
"........&#;>!##&.......",
"........&$#$$$$&.......",
"........&.-.--.........",
".......................",
".......................",
".......................",
".......................",
".......................",
"......................."};
