/* XPM */
static const char * plus_xpm[] = {
"23 39 17 1",
" 	c None",
".	c #030202",
"+	c #EADA1A",
"@	c #AE7015",
"#	c #86440E",
"$	c #71350E",
"%	c #5D290B",
"&	c #C68D19",
"*	c #4F210A",
"=	c #3C1A06",
"-	c #CFA317",
";	c #2C1407",
">	c #DDBF16",
",	c #231306",
"'	c #9A570F",
")	c #F6ED1A",
"!	c #E9D41A",
".......................",
".......................",
".......................",
".......................",
".......................",
"...........;=..........",
"........;*$#$=.........",
"........*$#@@$*........",
"........*$@>-$$$;......",
"......;$$'+)>###%......",
".....,%#$'+)!#$#*,.....",
"......;#''+)!''#**,....",
".....=*''&+)+&''$#=....",
"...;*##'&>+)+>&'##%;...",
"..*$'&>->!)))>>--'$$*..",
"..*%@+)))))))))))-$**..",
"..;$#-)!!+)))))+!@$$;..",
"...$$#@@&>+)+>-&'#$$...",
"...=*$##&>+)+-@###%*...",
"....,##$#@+)+@'#$#%....",
".....=$##'!)>#$%%$*....",
"......=$#'!)>#$*;=,....",
"......=$##-)>#$$*,.....",
"......,*$#@>@$$#$;.....",
".......,%$#@#$$$$;.....",
".......,$$$****%=,.....",
".......,%*=.;;.........",
".......................",
".......................",
".......................",
".......................",
".......................",
".......................",
".......................",
".......................",
".......................",
".......................",
".......................",
"......................."};
