/* XPM */
static const char * question_xpm[] = {
"23 39 17 1",
" 	c None",
".	c #070502",
"+	c #E8C110",
"@	c #B85E18",
"#	c #8A3A12",
"$	c #692C0D",
"%	c #4E1E09",
"&	c #DEAC12",
"*	c #391505",
"=	c #281003",
"-	c #C57A14",
";	c #A75D14",
">	c #1B0C02",
",	c #EFD90C",
"'	c #D59316",
")	c #140A02",
"!	c #984A17",
"...)))))**%***%**))))).",
"...))))=%#!!!#;#%*)))).",
"...))*%#;-'&&--'@$%=)).",
"...)*$;-&,,,,&,,,-$$=).",
"...*%#@+,+'@'@',++!#%).",
"...*$!',+-##!!@-&'&;$>.",
"...*$@++-!$%$$!@-&,'#=.",
"...%#-+&!$%%%%$!;+,&!=.",
"...%#-&-$%%%**$#!&,&!=.",
"...*$!@#%%%%%%%$!',&!=.",
"...*%$$$>>>>>=*$!&,'#=.",
"...=*%%%>>>>*%$!-,,-#=.",
"..)====*>>>**$;-+,&;$=.",
"...>....>>=%$!&,,+-#*=.",
".).>....>=%#;'+,+@!$=>.",
".).>....>%$@+,,+&!#*>).",
".).>....=$!&,,&@!#*>>).",
".>.>...)%$-,,';#$%>>>).",
".).>...*$!&,+-!$%*=>>).",
".).>...*$;,,'@$%*>=>>).",
".>.>...=$;&&-!$**>=>>).",
".>.))>>=$!--!$%==)=>>).",
".>.)>===*$#$$%=>===>>).",
".>.===>=*%$%%*....=....",
".>.)==>=*%$$$$%*>>=....",
"...)====*$--!#%**==....",
".).)>**%#-,+-#$$**>....",
"....>==%#-,,-!$%*=)....",
"....>**%$#'-!#$%=))....",
"....>**%%$##$$%%=......",
".....==*%%$$$%*=)......",
".......................",
".......................",
".......................",
".......................",
".......................",
".......................",
".......................",
"......................."};

