/* XPM */
static const char * rcurly_xpm[] = {
"23 39 17 1",
" 	c None",
".	c #030202",
"+	c #DFB81A",
"@	c #BE6515",
"#	c #A15111",
"$	c #813D0D",
"%	c #662E0B",
"&	c #4C2208",
"*	c #CC7D18",
"=	c #391906",
"-	c #ACA316",
";	c #2A1305",
">	c #E6C91A",
",	c #9F8D12",
"'	c #D39C18",
")	c #200E02",
"!	c #F5E71E",
"...)&$$#$&%%;..........",
"...=$#@*'@'*$;.........",
"..)&$@+!!->'@$)........",
"...=$#*'+,!!'$=........",
"...)&$####>!>#%).......",
"....)&%$#$'!!*$=.......",
"......)&%&#,-#%=.......",
".......;%%@'!'#%;......",
"........&&#'!'#%;......",
"........;&#'!'#%;......",
"........;%#'!'#$=......",
"........=%@'!'##%;.....",
"........)&#'!+**#%;....",
".........;$'!!>+@#%=...",
".........)$*'>!!>*@%)..",
"..........%#@@+!!+@$;..",
".........)%##@+!!'#$;..",
".........;$#'>!!>@#$;..",
"........)=$*!!>'@#$%)..",
"........)&@'!+*@#$&)...",
"........;%@'!'@@$&)....",
"........)=$@-@$%=......",
"........=%@'!'#$)......",
"........&%@'!'$&.......",
".......)&%#'!'#$)......",
"......)&$$@+!'#$)......",
".....;&$##'!!*@%.......",
"....)%##@#>!>##=.......",
"....=$*'+,!!*$&........",
"....=#+!!->'#&)........",
"....=$@*'@*##&.........",
"....)&$#@#*$&..........",
".....)=$*#$;...........",
".......;%&)............",
".......................",
".......................",
".......................",
".......................",
"......................."};
