/* XPM */
static const char * rparen_xpm[] = {
"23 39 72 1",
" 	c None",
".	c #020202",
"+	c #150D02",
"@	c #1E0F03",
"#	c #2F1204",
"$	c #421A09",
"%	c #79310E",
"&	c #943B0F",
"*	c #58230C",
"=	c #953D0F",
"-	c #8C4E0E",
";	c #C19011",
">	c #BB8410",
",	c #A65C0F",
"'	c #963F0F",
")	c #9A460F",
"!	c #E6C711",
"~	c #F2E912",
"{	c #F2EA12",
"]	c #ECD812",
"^	c #D39112",
"/	c #97410F",
"(	c #B35112",
"_	c #DBA711",
":	c #ECD712",
"<	c #F2E312",
"[	c #E1B611",
"}	c #98420F",
"|	c #B65A12",
"1	c #D58E12",
"2	c #F2E212",
"3	c #DEAF11",
"4	c #953E0F",
"5	c #C26212",
"6	c #D69212",
"7	c #B96112",
"8	c #B24F12",
"9	c #C36312",
"0	c #E7C712",
"a	c #F2E412",
"b	c #C26112",
"c	c #D28612",
"d	c #F2DA12",
"e	c #F2D412",
"f	c #D69711",
"g	c #D07E12",
"h	c #D28512",
"i	c #EAD012",
"j	c #99440F",
"k	c #F2D512",
"l	c #F0E312",
"m	c #C27612",
"n	c #F2D212",
"o	c #D28412",
"p	c #E2B612",
"q	c #D59411",
"r	c #AE820E",
"s	c #953C0F",
"t	c #9D4B0F",
"u	c #C78312",
"v	c #DBA611",
"w	c #F2D312",
"x	c #D9A312",
"y	c #F1E612",
"z	c #D4BC10",
"A	c #EFE012",
"B	c #DAA311",
"C	c #89490E",
"D	c #C08C10",
"E	c #AB650F",
"F	c #7D360E",
"G	c #000000",
"...+@#$$$$@............",
"...+$%%&&&&%%$#..#.....",
"...+*&=-;>,'%%$###.....",
"...+*&)!~{]^/%*$##.....",
"...+$%(_:<{{[}%%$#.....",
"++++$&%=|12{{34%*#.....",
"++++@$**&56{{27%%$.....",
"+@++@+#*&890{a_%%*#....",
"@@++#@#*&8bcdde8%%$....",
"@@+@#@#$%8b5f{{g%&$....",
"#@+@@@#$*&88gedh%&*....",
"#@+@@+@$*%&8bd{ij8%....",
"#++@@+@$$*&8bk{lm8%....",
"#++@++@@$*%8bn{{ob&....",
"#++++@@$$*&&8p{{qb8....",
"#++++@@@$*%88q{{pb8....",
"@+++++.@$*&&8q{{pb8....",
"@+++++.@#$%88r{{pb&....",
"@+++@+@@$%&&%q{{qb&....",
"@+++@++#$%%%&n{nbb%....",
"+++@+@@$*&88g{{n88$....",
"+++@++@$%888p{{p8%#....",
"+++@++#*%&88p{nb%*#....",
"+++@+@#*%88q{{g&%$#....",
"+++@@@$%&8bn{n8%*##....",
"+++@@*%&&8q{{p&*$##....",
"+++@$%stuvw{nb%$###....",
"+++@#%}xy{{nb&*####....",
"+@@@$&}z~AB8&%####.....",
"+@@@$&sCDEF%%#.........",
"++@@#%&&%%%*$..........",
"+++@@#**$###...........",
"++.+...................",
"++.+...................",
".......................",
".......................",
"....GGGGGGGGGGGGGGGGGGG",
"....GGGGGGGGGGGGGGGGGGG",
"......................."};
