/* XPM */
static const char * rsquare_xpm[] = {
"23 39 17 1",
" 	c None",
".	c #020202",
"+	c #EAD21E",
"@	c #C1671E",
"#	c #823C0F",
"$	c #70300C",
"%	c #5B2608",
"&	c #BE791F",
"*	c #451D09",
"=	c #CE921B",
"-	c #C6A512",
";	c #361202",
">	c #995612",
",	c #F4E91C",
"'	c #2A0E0A",
")	c #D9BD15",
"!	c #8D4C0F",
"......*%$!######.......",
"......;%!!>>@&&@*'.....",
".....%$#>==))++=$*.....",
".....%%#-,+,,,,)$%.....",
".....;$#&),,,,,,!$*....",
"......$$#>&==,,+!$*....",
"......*%#!@@&+,+!$%....",
"........;*>@@+,+!$%....",
"..........*$!),)>%*....",
"..........*$$-,)>%.....",
"..........*$$-,)>%.....",
"..........'$#-,)>$'....",
"..........*$#-,)>$'....",
"..........*$$-,)!%.....",
"...........$#),)#*.....",
"..........*$#),)#*.....",
"..........*$$),)#%.....",
"..........'$!),)#%.....",
"..........*$!),)#%.....",
".........'%$!),)#%.....",
"..........%$!),)#$*....",
"..........'$#-,)>$'....",
"..........*$$-,)>%.....",
"..........*$!),)>%*....",
"........;*>@@+,+!$%....",
"......*%#!@@&+,+!$%....",
"......$$#>&==,,+!$*....",
".....;$#&),,,,,,!$*....",
".....%%#-,+,,,,)$%.....",
".....%$#>==))++=$*.....",
"......;%!!>>@&&@*'.....",
"......*%$!######.......",
".......................",
".......................",
".......................",
".......................",
".......................",
".......................",
"......................."};
