/* XPM */
static const char * semi_xpm[] = {
"23 39 17 1",
" 	c None",
".	c #030202",
"+	c #FAEE06",
"@	c #C66606",
"#	c #742B06",
"$	c #5B2406",
"%	c #4F1F06",
"&	c #E5B408",
"*	c #3D1906",
"=	c #270905",
"-	c #A84E06",
";	c #1D0A03",
">	c #D08D06",
",	c #F8EA06",
"'	c #913506",
")	c #8A4A06",
"!	c #160803",
".......................",
".......................",
".......................",
".......................",
".......................",
".......................",
".......................",
".......===*****;.......",
"......==****$*$%;......",
".....===##$$$$$%;......",
"....==**#$-'#-$'*!.....",
"...==*#''@-&-@$$%%.....",
"...===$#'@&++&--$%=!.!.",
"...==*$#'@+++&@@'#%!...",
"...==*$#-@&++&--'#*....",
"...===*$#@+++&@@##=....",
"...=;!..##-&&-$$##;....",
"...==;!!%$#$$%##$%!....",
"...=!..!;!!!;;===;.....",
"...=;...!;;;!!!!!......",
"...==.!!;=**=;;!!......",
".....==;%#$$#%=;!......",
"....==**#'-'--$%;!.....",
"....=*#''@-&>@#$*=.....",
"....==$#'@&,,&)-%=.....",
"....=*$#-@++++@@#;.....",
"....==**'>&+++>-'*!....",
"....==.*'>+++&@'$*!....",
".......*)&++&@)$*;.....",
"......=$@+++@)$*=......",
".....=*#&++>'$=........",
"......*'&&&)#*.........",
"......*#)@)#$=.........",
".....=.$###*=..........",
".....=...**=...........",
".......................",
".......................",
".......................",
"......................."};
