/* XPM */
static const char * singlequote_xpm[] = {
"23 39 17 1",
" 	c None",
".	c #020202",
"+	c #EED612",
"@	c #A75512",
"#	c #6A2E0A",
"$	c #3A1606",
"%	c #DEA612",
"&	c #1A0A02",
"*	c #C68A12",
"=	c #0A0602",
"-	c #8C3D0F",
";	c #52220A",
">	c #BA7212",
",	c #FAF212",
"'	c #2A1206",
")	c #E6C212",
"!	c #160E06",
"..======&&''&=========&",
"..===&&&'$;$''&=======&",
"..==&''$$;#;;;$'=======",
"..==&$';;@--@##$&======",
"..==&$'$#@@)@>#;&======",
"..==''$;-*+,+*-;$======",
"..==&';#@%+,,%-;'===&==",
"..==='$#-%),,%@;'==='&=",
"..==&'$;@@>),%@#&======",
"..==&''&$-@%,@-;'===&==",
"..===&'$#-*+>--$&=====&",
"..====='#-@*--$========",
"..=====&;--##;&========",
"..=====================",
"..=====================",
"..=====================",
"..=====================",
"..=====================",
"!!=====================",
"....!!===!!!...........",
"....!!!&!!!!...........",
"....!!!!!!!!...........",
".......................",
".......................",
".......................",
".......................",
".......................",
".......................",
".......................",
".......................",
".......................",
".......................",
".......................",
".......................",
".......................",
".......................",
".......................",
".......................",
"......................."};
