/* XPM */
static const char *slash_xpm[] = {
/* width height num_colors chars_per_pixel */
"    23    39       16            1",
/* colors */
". c #000000",
"# c #d87c10",
"a c #904018",
"b c #582008",
"c c #803008",
"d c #301008",
"e c #682810",
"f c #401c08",
"g c #401400",
"h c #f0dc10",
"i c #c86410",
"j c #e8b010",
"k c #b05010",
"l c #f8f410",
"m c #983808",
"n c #180800",
/* pixels */
".......................",
".......................",
".......................",
"............nnggfgbn...",
"..........nnggffffbbdn.",
"..........ngbbbeceebbnn",
"........ndfbekiikcebbn.",
"........nbbcm#hhjiabn..",
"......ndbemk#hlh#keen..",
"......dfecmkjhlh#iabgn.",
".....dbecmk#llh#ikagnn.",
".....dbccaijllh#iaefnn.",
"....geecmkjllh#imccfn..",
"....geeckijllhikmccfn..",
"...gbckmijllhiacacfn...",
"...dfcmk#jllhkcckegn...",
"..ndbcmk#hhjaeccbdn....",
"..ndbcaijllhkcmcfdnn...",
".ndemam#hhjaecegddnn...",
".ndeckijllhkcmbfdnn....",
".bbckmkllhkcmbfgdn.....",
"ndgekijllhmcccfgddn....",
".bbmk#hljkcmmegddn.....",
"dgbkkjlljikmagdn.......",
".nmkijlhiacbbdn........",
"ngemijl#iikmcfdn.......",
"..ncmmccbbfn...........",
".....nbeen.............",
".......................",
".......................",
".......................",
".......................",
".......................",
".......................",
".......................",
".......................",
".......................",
".......................",
"......................."};

