/* XPM */
static const char * star_xpm[] = {
"23 39 17 1",
" 	c None",
".	c #020202",
"+	c #F2E224",
"@	c #D2AF18",
"#	c #9C5912",
"$	c #602C0B",
"%	c #3C1C0A",
"&	c #AB7514",
"*	c #2C140A",
"=	c #85540F",
"-	c #C29614",
";	c #E4CC1A",
">	c #82490F",
",	c #FCF226",
"'	c #C28A19",
")	c #733712",
"!	c #4F230A",
".......................",
".......................",
".......................",
".*.*$$)$*.......%$$$*..",
".*.$=&=$%......%=#=)%..",
"...)&;@&$**...%)&@&)$%.",
"...$#@;@=$!..!)&;@=$%..",
"...$)&;+'$!%!)>-;&)$%..",
"..*$$#@++'>)>#-+@=$$*..",
"...%!>&;,+&##'++-$!%...",
"....*$>-+,;&&;,+#$!%...",
".....%)&;,+'@,,;)$!%...",
".*%$=#&'@,,+,,+''&#=$%*",
".!$)=#'-@+,,,,;@--&#)$!",
".!)@+,++,,,,,,,,+++;-)!",
".$)&;@;++,,,,,,+,+@-&)$",
".!$)=#'-@+,,,,;@--&#)$!",
".....%)&;,+'@,,;)$!%...",
"....*$>-+,;&&;,+#$!%...",
"...%!>&;,+&##'++-$!%...",
"..*$$#@++'>)>#-+@=$$*..",
"...$)&;+'$!%!)>-;&)$%..",
"...$#@;@=$!..!)&;@=$%..",
"...)&;@&$**...%)&@&)$%.",
".*.$=&=$%......%=#=)%..",
".*.*$$)$*.......%$$$*..",
".......................",
".......................",
".......................",
".......................",
".......................",
".......................",
".......................",
".......................",
".......................",
".......................",
".......................",
".......................",
"......................."};
