/* XPM */
static const char * underbar_xpm[] = {
"23 39 78 1",
" 	c None",
".	c #000000",
"+	c #010000",
"@	c #010100",
"#	c #030100",
"$	c #070200",
"%	c #090300",
"&	c #080300",
"*	c #0C0400",
"=	c #271103",
"-	c #2B1202",
";	c #3A1603",
">	c #3E1702",
",	c #421903",
"'	c #3E1804",
")	c #451B05",
"!	c #4D1E04",
"~	c #4C2A08",
"{	c #904C19",
"]	c #873B15",
"^	c #94390B",
"/	c #8F3B0C",
"(	c #8A360B",
"_	c #89380A",
":	c #89350A",
"<	c #8D360A",
"[	c #5D2A08",
"}	c #813E08",
"|	c #9B6F16",
"1	c #B29608",
"2	c #C09F08",
"3	c #D1BA08",
"4	c #B49108",
"5	c #C09708",
"6	c #B89608",
"7	c #BC9508",
"8	c #5D3B08",
"9	c #996B17",
"0	c #D4C308",
"a	c #E5DF08",
"b	c #E8E508",
"c	c #E5E508",
"d	c #E5E108",
"e	c #E1DD08",
"f	c #E5E008",
"g	c #936218",
"h	c #B19808",
"i	c #E0C908",
"j	c #D8CD08",
"k	c #E3D608",
"l	c #DCC208",
"m	c #DCCD08",
"n	c #D9CE08",
"o	c #E4D108",
"p	c #6E3C08",
"q	c #925117",
"r	c #9F6614",
"s	c #92550A",
"t	c #9B6211",
"u	c #914E0A",
"v	c #995D09",
"w	c #9F5B13",
"x	c #A56516",
"y	c #2A1908",
"z	c #5E2A08",
"A	c #6C2F09",
"B	c #6E300A",
"C	c #76310A",
"D	c #80370B",
"E	c #83370B",
"F	c #803B11",
"G	c #803B17",
"H	c #200D02",
"I	c #260F03",
"J	c #301403",
"K	c #2F1303",
"L	c #160901",
"M	c #020100",
".......................",
".......................",
".......................",
".......................",
"....+@@@@@@@+@++.......",
"....@@@+++@............",
"....+@@+...............",
"....@@++...............",
"....+@++...............",
"....++@+...............",
"....++++...............",
"...+@@@+...............",
"...++@@................",
"...+@@@+++@+..+........",
"....@@@@@@@@++@+.......",
"...+@@@@@@@@+.++.......",
"...+@@@+.+++...........",
"...+@@@................",
"...++@+................",
"....@@@................",
"....@@++...............",
"....@@@................",
".......................",
".....#$%$&**&$%$#......",
"...=-;>,')!!)',>;-=....",
"..~{]^/(_:<<:_(/^]{~...",
".[}|12345677654321|}[..",
".890abbcdeffedcbba098..",
".~ghijklmnoonmlkjihg~..",
"..pqrstuvwxxwvutsrqp...",
"..yzABCDEFGGFEDCBAzy...",
"...+&HIJKLMMLKJIH&+....",
".......................",
".......................",
".......................",
".......................",
".......................",
".......................",
"......................."};
